<svg xmlns="http://www.w3.org/2000/svg" xmlns:xlink="http://www.w3.org/1999/xlink" width="662" zoomAndPan="magnify" viewBox="0 0 496.5 177.750001" height="237" preserveAspectRatio="xMidYMid meet" version="1.0"><defs><filter x="0%" y="0%" width="100%" height="100%" id="4ca1db1166"><feColorMatrix values="0 0 0 0 1 0 0 0 0 1 0 0 0 0 1 0 0 0 1 0" color-interpolation-filters="sRGB"/></filter><g/><clipPath id="51136fd74a"><path d="M 148 142 L 348 142 L 348 177.5 L 148 177.5 Z M 148 142 " clip-rule="nonzero"/></clipPath><mask id="9149894557"><g filter="url(#4ca1db1166)"><rect x="-49.65" width="595.8" fill="#000000" y="-17.775" height="213.300002" fill-opacity="0.7569"/></g></mask><clipPath id="c04df88d1b"><rect x="0" width="200" y="0" height="36"/></clipPath></defs><g fill="#ffffff" fill-opacity="0.4"><g transform="translate(125.625758, 134.818394)"><g><path d="M 61.40625 -73.625 C 61.3125 -73.007812 61.066406 -72.523438 60.671875 -72.171875 C 60.273438 -71.816406 59.765625 -71.640625 59.140625 -71.640625 L 34.421875 -71.640625 C 33.984375 -71.640625 33.765625 -71.414062 33.765625 -70.96875 L 32.15625 -57.953125 C 31.976562 -57.503906 32.15625 -57.28125 32.6875 -57.28125 L 45.59375 -57.28125 C 46.207031 -57.28125 46.671875 -57.101562 46.984375 -56.75 C 47.296875 -56.394531 47.40625 -55.90625 47.3125 -55.28125 L 45.1875 -37.875 C 44.925781 -36.550781 44.171875 -35.890625 42.921875 -35.890625 L 30.03125 -35.890625 C 29.59375 -35.890625 29.375 -35.664062 29.375 -35.21875 L 25.25 -2 C 25.164062 -1.375 24.921875 -0.882812 24.515625 -0.53125 C 24.117188 -0.175781 23.65625 0 23.125 0 L 2.65625 0 C 2.125 0 1.703125 -0.175781 1.390625 -0.53125 C 1.085938 -0.882812 0.976562 -1.375 1.0625 -2 L 11.96875 -91.046875 C 12.050781 -91.660156 12.289062 -92.144531 12.6875 -92.5 C 13.09375 -92.851562 13.5625 -93.03125 14.09375 -93.03125 L 61.796875 -93.03125 C 62.421875 -93.03125 62.882812 -92.851562 63.1875 -92.5 C 63.5 -92.144531 63.613281 -91.660156 63.53125 -91.046875 Z M 61.40625 -73.625 "/></g></g></g><g fill="#ffffff" fill-opacity="0.4"><g transform="translate(181.309266, 134.818394)"><g><path d="M 54.625 -91.578125 C 55.15625 -92.546875 55.953125 -93.03125 57.015625 -93.03125 L 77.21875 -93.03125 C 77.75 -93.03125 78.171875 -92.851562 78.484375 -92.5 C 78.796875 -92.144531 78.90625 -91.660156 78.8125 -91.046875 L 67.921875 -2 C 67.828125 -1.375 67.582031 -0.882812 67.1875 -0.53125 C 66.789062 -0.175781 66.320312 0 65.78125 0 L 45.328125 0 C 44.796875 0 44.375 -0.175781 44.0625 -0.53125 C 43.75 -0.882812 43.632812 -1.375 43.71875 -2 L 50.375 -56.359375 C 50.457031 -56.710938 50.390625 -56.910156 50.171875 -56.953125 C 49.953125 -56.992188 49.753906 -56.882812 49.578125 -56.625 L 40.53125 -43.59375 L 38.9375 -41.203125 L 38.8125 -41.203125 L 32.03125 -56.625 C 31.9375 -56.882812 31.800781 -56.992188 31.625 -56.953125 C 31.445312 -56.910156 31.316406 -56.710938 31.234375 -56.359375 L 24.59375 -2 C 24.5 -1.375 24.273438 -0.882812 23.921875 -0.53125 C 23.566406 -0.175781 23.082031 0 22.46875 0 L 2.125 0 C 1.507812 0 1.046875 -0.175781 0.734375 -0.53125 C 0.421875 -0.882812 0.3125 -1.375 0.40625 -2 L 11.296875 -91.046875 C 11.390625 -91.660156 11.632812 -92.144531 12.03125 -92.5 C 12.425781 -92.851562 12.890625 -93.03125 13.421875 -93.03125 L 33.625 -93.03125 C 34.6875 -93.03125 35.394531 -92.546875 35.75 -91.578125 L 42.796875 -74.296875 C 42.972656 -73.941406 43.238281 -73.941406 43.59375 -74.296875 Z M 54.625 -91.578125 "/></g></g></g><g fill="#ffffff" fill-opacity="1"><g transform="translate(122.806472, 131.999108)"><g><path d="M 61.40625 -73.625 C 61.3125 -73.007812 61.066406 -72.523438 60.671875 -72.171875 C 60.273438 -71.816406 59.765625 -71.640625 59.140625 -71.640625 L 34.421875 -71.640625 C 33.984375 -71.640625 33.765625 -71.414062 33.765625 -70.96875 L 32.15625 -57.953125 C 31.976562 -57.503906 32.15625 -57.28125 32.6875 -57.28125 L 45.59375 -57.28125 C 46.207031 -57.28125 46.671875 -57.101562 46.984375 -56.75 C 47.296875 -56.394531 47.40625 -55.90625 47.3125 -55.28125 L 45.1875 -37.875 C 44.925781 -36.550781 44.171875 -35.890625 42.921875 -35.890625 L 30.03125 -35.890625 C 29.59375 -35.890625 29.375 -35.664062 29.375 -35.21875 L 25.25 -2 C 25.164062 -1.375 24.921875 -0.882812 24.515625 -0.53125 C 24.117188 -0.175781 23.65625 0 23.125 0 L 2.65625 0 C 2.125 0 1.703125 -0.175781 1.390625 -0.53125 C 1.085938 -0.882812 0.976562 -1.375 1.0625 -2 L 11.96875 -91.046875 C 12.050781 -91.660156 12.289062 -92.144531 12.6875 -92.5 C 13.09375 -92.851562 13.5625 -93.03125 14.09375 -93.03125 L 61.796875 -93.03125 C 62.421875 -93.03125 62.882812 -92.851562 63.1875 -92.5 C 63.5 -92.144531 63.613281 -91.660156 63.53125 -91.046875 Z M 61.40625 -73.625 "/></g></g></g><g fill="#ffffff" fill-opacity="1"><g transform="translate(178.489979, 131.999108)"><g><path d="M 54.625 -91.578125 C 55.15625 -92.546875 55.953125 -93.03125 57.015625 -93.03125 L 77.21875 -93.03125 C 77.75 -93.03125 78.171875 -92.851562 78.484375 -92.5 C 78.796875 -92.144531 78.90625 -91.660156 78.8125 -91.046875 L 67.921875 -2 C 67.828125 -1.375 67.582031 -0.882812 67.1875 -0.53125 C 66.789062 -0.175781 66.320312 0 65.78125 0 L 45.328125 0 C 44.796875 0 44.375 -0.175781 44.0625 -0.53125 C 43.75 -0.882812 43.632812 -1.375 43.71875 -2 L 50.375 -56.359375 C 50.457031 -56.710938 50.390625 -56.910156 50.171875 -56.953125 C 49.953125 -56.992188 49.753906 -56.882812 49.578125 -56.625 L 40.53125 -43.59375 L 38.9375 -41.203125 L 38.8125 -41.203125 L 32.03125 -56.625 C 31.9375 -56.882812 31.800781 -56.992188 31.625 -56.953125 C 31.445312 -56.910156 31.316406 -56.710938 31.234375 -56.359375 L 24.59375 -2 C 24.5 -1.375 24.273438 -0.882812 23.921875 -0.53125 C 23.566406 -0.175781 23.082031 0 22.46875 0 L 2.125 0 C 1.507812 0 1.046875 -0.175781 0.734375 -0.53125 C 0.421875 -0.882812 0.3125 -1.375 0.40625 -2 L 11.296875 -91.046875 C 11.390625 -91.660156 11.632812 -92.144531 12.03125 -92.5 C 12.425781 -92.851562 12.890625 -93.03125 13.421875 -93.03125 L 33.625 -93.03125 C 34.6875 -93.03125 35.394531 -92.546875 35.75 -91.578125 L 42.796875 -74.296875 C 42.972656 -73.941406 43.238281 -73.941406 43.59375 -74.296875 Z M 54.625 -91.578125 "/></g></g></g><g fill="#ffffff" fill-opacity="0.4"><g transform="translate(254.25802, 134.818394)"><g><path d="M 27.640625 1.0625 C 20.023438 1.0625 14 -0.90625 9.5625 -4.84375 C 5.132812 -8.789062 2.921875 -14.039062 2.921875 -20.59375 C 2.921875 -21.21875 3.007812 -22.328125 3.1875 -23.921875 L 3.71875 -28.046875 C 3.8125 -28.660156 4.054688 -29.144531 4.453125 -29.5 C 4.847656 -29.851562 5.3125 -30.03125 5.84375 -30.03125 L 26.046875 -30.03125 C 26.578125 -30.03125 27 -29.851562 27.3125 -29.5 C 27.625 -29.144531 27.734375 -28.660156 27.640625 -28.046875 L 27.375 -25.125 C 27.195312 -23.707031 27.375 -22.550781 27.90625 -21.65625 C 28.4375 -20.769531 29.234375 -20.328125 30.296875 -20.328125 C 31.453125 -20.328125 32.425781 -20.816406 33.21875 -21.796875 C 34.019531 -22.773438 34.421875 -23.972656 34.421875 -25.390625 C 34.421875 -26.710938 33.773438 -28.082031 32.484375 -29.5 C 31.203125 -30.914062 28.75 -33.085938 25.125 -36.015625 C 21.570312 -38.941406 18.644531 -41.535156 16.34375 -43.796875 C 14.039062 -46.054688 12.046875 -48.847656 10.359375 -52.171875 C 8.679688 -55.492188 7.84375 -59.28125 7.84375 -63.53125 C 7.84375 -64.320312 7.929688 -65.695312 8.109375 -67.65625 C 9.078125 -75.539062 12.351562 -81.914062 17.9375 -86.78125 C 23.519531 -91.65625 30.476562 -94.09375 38.8125 -94.09375 C 46.425781 -94.09375 52.425781 -92.054688 56.8125 -87.984375 C 61.195312 -83.910156 63.390625 -78.414062 63.390625 -71.5 C 63.390625 -70.707031 63.300781 -69.425781 63.125 -67.65625 L 62.734375 -64.71875 C 62.640625 -64.101562 62.394531 -63.617188 62 -63.265625 C 61.601562 -62.910156 61.140625 -62.734375 60.609375 -62.734375 L 40.53125 -62.734375 C 40 -62.734375 39.578125 -62.910156 39.265625 -63.265625 C 38.960938 -63.617188 38.851562 -64.101562 38.9375 -64.71875 L 39.34375 -68.1875 C 39.425781 -69.507812 39.179688 -70.59375 38.609375 -71.4375 C 38.035156 -72.28125 37.21875 -72.703125 36.15625 -72.703125 C 34.914062 -72.703125 33.894531 -72.171875 33.09375 -71.109375 C 32.289062 -70.046875 31.890625 -68.628906 31.890625 -66.859375 C 31.890625 -65.347656 32.507812 -63.796875 33.75 -62.203125 C 35 -60.609375 37.304688 -58.394531 40.671875 -55.5625 C 45.191406 -51.75 48.644531 -48.664062 51.03125 -46.3125 C 53.425781 -43.96875 55.3125 -41.398438 56.6875 -38.609375 C 58.0625 -35.816406 58.75 -32.648438 58.75 -29.109375 C 58.75 -28.398438 58.660156 -27.160156 58.484375 -25.390625 C 57.421875 -17.328125 54.070312 -10.898438 48.4375 -6.109375 C 42.8125 -1.328125 35.878906 1.0625 27.640625 1.0625 Z M 27.640625 1.0625 "/></g></g></g><g fill="#77037b" fill-opacity="1"><g transform="translate(251.438733, 131.999108)"><g><path d="M 27.640625 1.0625 C 20.023438 1.0625 14 -0.90625 9.5625 -4.84375 C 5.132812 -8.789062 2.921875 -14.039062 2.921875 -20.59375 C 2.921875 -21.21875 3.007812 -22.328125 3.1875 -23.921875 L 3.71875 -28.046875 C 3.8125 -28.660156 4.054688 -29.144531 4.453125 -29.5 C 4.847656 -29.851562 5.3125 -30.03125 5.84375 -30.03125 L 26.046875 -30.03125 C 26.578125 -30.03125 27 -29.851562 27.3125 -29.5 C 27.625 -29.144531 27.734375 -28.660156 27.640625 -28.046875 L 27.375 -25.125 C 27.195312 -23.707031 27.375 -22.550781 27.90625 -21.65625 C 28.4375 -20.769531 29.234375 -20.328125 30.296875 -20.328125 C 31.453125 -20.328125 32.425781 -20.816406 33.21875 -21.796875 C 34.019531 -22.773438 34.421875 -23.972656 34.421875 -25.390625 C 34.421875 -26.710938 33.773438 -28.082031 32.484375 -29.5 C 31.203125 -30.914062 28.75 -33.085938 25.125 -36.015625 C 21.570312 -38.941406 18.644531 -41.535156 16.34375 -43.796875 C 14.039062 -46.054688 12.046875 -48.847656 10.359375 -52.171875 C 8.679688 -55.492188 7.84375 -59.28125 7.84375 -63.53125 C 7.84375 -64.320312 7.929688 -65.695312 8.109375 -67.65625 C 9.078125 -75.539062 12.351562 -81.914062 17.9375 -86.78125 C 23.519531 -91.65625 30.476562 -94.09375 38.8125 -94.09375 C 46.425781 -94.09375 52.425781 -92.054688 56.8125 -87.984375 C 61.195312 -83.910156 63.390625 -78.414062 63.390625 -71.5 C 63.390625 -70.707031 63.300781 -69.425781 63.125 -67.65625 L 62.734375 -64.71875 C 62.640625 -64.101562 62.394531 -63.617188 62 -63.265625 C 61.601562 -62.910156 61.140625 -62.734375 60.609375 -62.734375 L 40.53125 -62.734375 C 40 -62.734375 39.578125 -62.910156 39.265625 -63.265625 C 38.960938 -63.617188 38.851562 -64.101562 38.9375 -64.71875 L 39.34375 -68.1875 C 39.425781 -69.507812 39.179688 -70.59375 38.609375 -71.4375 C 38.035156 -72.28125 37.21875 -72.703125 36.15625 -72.703125 C 34.914062 -72.703125 33.894531 -72.171875 33.09375 -71.109375 C 32.289062 -70.046875 31.890625 -68.628906 31.890625 -66.859375 C 31.890625 -65.347656 32.507812 -63.796875 33.75 -62.203125 C 35 -60.609375 37.304688 -58.394531 40.671875 -55.5625 C 45.191406 -51.75 48.644531 -48.664062 51.03125 -46.3125 C 53.425781 -43.96875 55.3125 -41.398438 56.6875 -38.609375 C 58.0625 -35.816406 58.75 -32.648438 58.75 -29.109375 C 58.75 -28.398438 58.660156 -27.160156 58.484375 -25.390625 C 57.421875 -17.328125 54.070312 -10.898438 48.4375 -6.109375 C 42.8125 -1.328125 35.878906 1.0625 27.640625 1.0625 Z M 27.640625 1.0625 "/></g></g></g><g fill="#ffffff" fill-opacity="0.4"><g transform="translate(313.9178, 134.818394)"><g><path d="M 43.71875 -91.046875 C 43.8125 -91.660156 44.035156 -92.144531 44.390625 -92.5 C 44.742188 -92.851562 45.234375 -93.03125 45.859375 -93.03125 L 66.1875 -93.03125 C 66.8125 -93.03125 67.273438 -92.851562 67.578125 -92.5 C 67.890625 -92.144531 68.003906 -91.660156 67.921875 -91.046875 L 57.015625 -2 C 56.929688 -1.375 56.6875 -0.882812 56.28125 -0.53125 C 55.882812 -0.175781 55.375 0 54.75 0 L 34.421875 0 C 33.804688 0 33.34375 -0.175781 33.03125 -0.53125 C 32.71875 -0.882812 32.601562 -1.375 32.6875 -2 L 36.8125 -35.21875 C 36.8125 -35.664062 36.632812 -35.890625 36.28125 -35.890625 L 30.03125 -35.890625 C 29.59375 -35.890625 29.375 -35.664062 29.375 -35.21875 L 25.25 -2 C 25.164062 -1.375 24.921875 -0.882812 24.515625 -0.53125 C 24.117188 -0.175781 23.65625 0 23.125 0 L 2.65625 0 C 2.125 0 1.703125 -0.175781 1.390625 -0.53125 C 1.085938 -0.882812 0.976562 -1.375 1.0625 -2 L 11.96875 -91.046875 C 12.050781 -91.660156 12.289062 -92.144531 12.6875 -92.5 C 13.09375 -92.851562 13.5625 -93.03125 14.09375 -93.03125 L 34.5625 -93.03125 C 35.09375 -93.03125 35.507812 -92.851562 35.8125 -92.5 C 36.125 -92.144531 36.238281 -91.660156 36.15625 -91.046875 L 32.15625 -57.953125 C 31.976562 -57.503906 32.15625 -57.28125 32.6875 -57.28125 L 38.9375 -57.28125 C 39.113281 -57.28125 39.269531 -57.347656 39.40625 -57.484375 C 39.539062 -57.617188 39.609375 -57.773438 39.609375 -57.953125 Z M 43.71875 -91.046875 "/></g></g></g><g fill="#ffffff" fill-opacity="1"><g transform="translate(311.098513, 131.999108)"><g><path d="M 43.71875 -91.046875 C 43.8125 -91.660156 44.035156 -92.144531 44.390625 -92.5 C 44.742188 -92.851562 45.234375 -93.03125 45.859375 -93.03125 L 66.1875 -93.03125 C 66.8125 -93.03125 67.273438 -92.851562 67.578125 -92.5 C 67.890625 -92.144531 68.003906 -91.660156 67.921875 -91.046875 L 57.015625 -2 C 56.929688 -1.375 56.6875 -0.882812 56.28125 -0.53125 C 55.882812 -0.175781 55.375 0 54.75 0 L 34.421875 0 C 33.804688 0 33.34375 -0.175781 33.03125 -0.53125 C 32.71875 -0.882812 32.601562 -1.375 32.6875 -2 L 36.8125 -35.21875 C 36.8125 -35.664062 36.632812 -35.890625 36.28125 -35.890625 L 30.03125 -35.890625 C 29.59375 -35.890625 29.375 -35.664062 29.375 -35.21875 L 25.25 -2 C 25.164062 -1.375 24.921875 -0.882812 24.515625 -0.53125 C 24.117188 -0.175781 23.65625 0 23.125 0 L 2.65625 0 C 2.125 0 1.703125 -0.175781 1.390625 -0.53125 C 1.085938 -0.882812 0.976562 -1.375 1.0625 -2 L 11.96875 -91.046875 C 12.050781 -91.660156 12.289062 -92.144531 12.6875 -92.5 C 13.09375 -92.851562 13.5625 -93.03125 14.09375 -93.03125 L 34.5625 -93.03125 C 35.09375 -93.03125 35.507812 -92.851562 35.8125 -92.5 C 36.125 -92.144531 36.238281 -91.660156 36.15625 -91.046875 L 32.15625 -57.953125 C 31.976562 -57.503906 32.15625 -57.28125 32.6875 -57.28125 L 38.9375 -57.28125 C 39.113281 -57.28125 39.269531 -57.347656 39.40625 -57.484375 C 39.539062 -57.617188 39.609375 -57.773438 39.609375 -57.953125 Z M 43.71875 -91.046875 "/></g></g></g><g clip-path="url(#51136fd74a)"><g mask="url(#9149894557)"><g transform="matrix(1, 0, 0, 1, 148, 142)"><g clip-path="url(#c04df88d1b)"><g fill="#77037b" fill-opacity="0.4"><g transform="translate(2.399938, 30.228537)"><g><path d="M 11.453125 -19.171875 C 11.453125 -18.972656 11.351562 -18.875 11.15625 -18.875 L 4.34375 -18.875 C 4.269531 -18.875 4.234375 -18.832031 4.234375 -18.75 L 4.234375 -11.421875 C 4.234375 -11.335938 4.269531 -11.296875 4.34375 -11.296875 L 8.640625 -11.296875 C 8.835938 -11.296875 8.9375 -11.195312 8.9375 -11 L 8.9375 -9.734375 C 8.9375 -9.535156 8.835938 -9.4375 8.640625 -9.4375 L 4.34375 -9.4375 C 4.269531 -9.4375 4.234375 -9.394531 4.234375 -9.3125 L 4.234375 -0.296875 C 4.234375 -0.0976562 4.132812 0 3.9375 0 L 2.421875 0 C 2.222656 0 2.125 -0.0976562 2.125 -0.296875 L 2.125 -20.40625 C 2.125 -20.601562 2.222656 -20.703125 2.421875 -20.703125 L 11.15625 -20.703125 C 11.351562 -20.703125 11.453125 -20.601562 11.453125 -20.40625 Z M 11.453125 -19.171875 "/></g></g></g><g fill="#77037b" fill-opacity="0.4"><g transform="translate(14.349439, 30.228537)"><g><path d="M 2.421875 0 C 2.222656 0 2.125 -0.0976562 2.125 -0.296875 L 2.125 -20.40625 C 2.125 -20.601562 2.222656 -20.703125 2.421875 -20.703125 L 3.9375 -20.703125 C 4.132812 -20.703125 4.234375 -20.601562 4.234375 -20.40625 L 4.234375 -0.296875 C 4.234375 -0.0976562 4.132812 0 3.9375 0 Z M 2.421875 0 "/></g></g></g><g fill="#77037b" fill-opacity="0.4"><g transform="translate(20.708706, 30.228537)"><g><path d="M 10.40625 -20.40625 C 10.40625 -20.601562 10.503906 -20.703125 10.703125 -20.703125 L 12.1875 -20.703125 C 12.382812 -20.703125 12.484375 -20.601562 12.484375 -20.40625 L 12.484375 -0.296875 C 12.484375 -0.0976562 12.382812 0 12.1875 0 L 10.4375 0 C 10.28125 0 10.171875 -0.078125 10.109375 -0.234375 L 4.34375 -15.53125 C 4.320312 -15.59375 4.289062 -15.617188 4.25 -15.609375 C 4.21875 -15.597656 4.203125 -15.5625 4.203125 -15.5 L 4.234375 -0.296875 C 4.234375 -0.0976562 4.132812 0 3.9375 0 L 2.421875 0 C 2.222656 0 2.125 -0.0976562 2.125 -0.296875 L 2.125 -20.40625 C 2.125 -20.601562 2.222656 -20.703125 2.421875 -20.703125 L 4.140625 -20.703125 C 4.296875 -20.703125 4.40625 -20.625 4.46875 -20.46875 L 10.265625 -5.140625 C 10.285156 -5.085938 10.3125 -5.066406 10.34375 -5.078125 C 10.382812 -5.085938 10.40625 -5.117188 10.40625 -5.171875 Z M 10.40625 -20.40625 "/></g></g></g><g fill="#77037b" fill-opacity="0.4"><g transform="translate(35.290647, 30.228537)"><g><path d="M 2.421875 0 C 2.222656 0 2.125 -0.0976562 2.125 -0.296875 L 2.125 -20.40625 C 2.125 -20.601562 2.222656 -20.703125 2.421875 -20.703125 L 6.984375 -20.703125 C 8.503906 -20.703125 9.71875 -20.203125 10.625 -19.203125 C 11.53125 -18.210938 11.984375 -16.878906 11.984375 -15.203125 L 11.984375 -5.5 C 11.984375 -3.820312 11.53125 -2.484375 10.625 -1.484375 C 9.71875 -0.492188 8.503906 0 6.984375 0 Z M 4.234375 -1.953125 C 4.234375 -1.867188 4.269531 -1.828125 4.34375 -1.828125 L 6.953125 -1.859375 C 7.816406 -1.859375 8.507812 -2.191406 9.03125 -2.859375 C 9.550781 -3.535156 9.820312 -4.445312 9.84375 -5.59375 L 9.84375 -15.109375 C 9.84375 -16.273438 9.585938 -17.191406 9.078125 -17.859375 C 8.566406 -18.535156 7.859375 -18.875 6.953125 -18.875 L 4.34375 -18.875 C 4.269531 -18.875 4.234375 -18.832031 4.234375 -18.75 Z M 4.234375 -1.953125 "/></g></g></g><g fill="#77037b" fill-opacity="0.4"><g transform="translate(49.044401, 30.228537)"><g/></g></g><g fill="#77037b" fill-opacity="0.4"><g transform="translate(54.959997, 30.228537)"><g><path d="M 11.15625 -20.5 C 11.207031 -20.632812 11.320312 -20.703125 11.5 -20.703125 L 13.046875 -20.703125 C 13.242188 -20.703125 13.34375 -20.601562 13.34375 -20.40625 L 13.34375 -0.296875 C 13.34375 -0.0976562 13.242188 0 13.046875 0 L 11.53125 0 C 11.332031 0 11.234375 -0.0976562 11.234375 -0.296875 L 11.234375 -16.15625 C 11.234375 -16.207031 11.21875 -16.234375 11.1875 -16.234375 C 11.164062 -16.234375 11.132812 -16.210938 11.09375 -16.171875 L 8.015625 -9.796875 C 7.953125 -9.648438 7.851562 -9.578125 7.71875 -9.578125 C 7.5625 -9.578125 7.453125 -9.648438 7.390625 -9.796875 L 4.3125 -16.15625 C 4.28125 -16.1875 4.25 -16.203125 4.21875 -16.203125 C 4.1875 -16.203125 4.171875 -16.175781 4.171875 -16.125 L 4.171875 -0.296875 C 4.171875 -0.0976562 4.070312 0 3.875 0 L 2.359375 0 C 2.171875 0 2.078125 -0.0976562 2.078125 -0.296875 L 2.078125 -20.40625 C 2.078125 -20.601562 2.171875 -20.703125 2.359375 -20.703125 L 3.90625 -20.703125 C 4.082031 -20.703125 4.203125 -20.632812 4.265625 -20.5 L 7.625 -13.671875 C 7.644531 -13.628906 7.675781 -13.609375 7.71875 -13.609375 C 7.757812 -13.609375 7.789062 -13.628906 7.8125 -13.671875 Z M 11.15625 -20.5 "/></g></g></g><g fill="#77037b" fill-opacity="0.4"><g transform="translate(70.370114, 30.228537)"><g><path d="M 5.53125 -0.03125 C 5.332031 -0.03125 5.234375 -0.128906 5.234375 -0.328125 L 5.234375 -9.171875 C 5.234375 -9.242188 5.222656 -9.289062 5.203125 -9.3125 L 1.09375 -20.34375 L 1.0625 -20.46875 C 1.0625 -20.625 1.148438 -20.703125 1.328125 -20.703125 L 2.921875 -20.703125 C 3.097656 -20.703125 3.21875 -20.625 3.28125 -20.46875 L 6.1875 -11.796875 C 6.207031 -11.765625 6.234375 -11.75 6.265625 -11.75 C 6.304688 -11.75 6.335938 -11.765625 6.359375 -11.796875 L 9.265625 -20.46875 C 9.316406 -20.625 9.429688 -20.703125 9.609375 -20.703125 L 11.203125 -20.703125 C 11.304688 -20.703125 11.378906 -20.664062 11.421875 -20.59375 C 11.472656 -20.53125 11.484375 -20.445312 11.453125 -20.34375 L 7.359375 -9.3125 C 7.335938 -9.289062 7.328125 -9.242188 7.328125 -9.171875 L 7.328125 -0.328125 C 7.328125 -0.128906 7.234375 -0.03125 7.046875 -0.03125 Z M 5.53125 -0.03125 "/></g></g></g><g fill="#77037b" fill-opacity="0.4"><g transform="translate(82.911176, 30.228537)"><g/></g></g><g fill="#77037b" fill-opacity="0.4"><g transform="translate(88.826772, 30.228537)"><g><path d="M 6.15625 0.234375 C 4.695312 0.234375 3.515625 -0.242188 2.609375 -1.203125 C 1.703125 -2.171875 1.25 -3.4375 1.25 -5 L 1.25 -5.671875 C 1.25 -5.867188 1.34375 -5.96875 1.53125 -5.96875 L 2.984375 -5.96875 C 3.179688 -5.96875 3.28125 -5.867188 3.28125 -5.671875 L 3.28125 -5.09375 C 3.28125 -4.039062 3.546875 -3.191406 4.078125 -2.546875 C 4.609375 -1.910156 5.300781 -1.59375 6.15625 -1.59375 C 6.976562 -1.59375 7.664062 -1.898438 8.21875 -2.515625 C 8.769531 -3.128906 9.046875 -3.9375 9.046875 -4.9375 C 9.046875 -5.601562 8.910156 -6.175781 8.640625 -6.65625 C 8.378906 -7.144531 8.035156 -7.570312 7.609375 -7.9375 C 7.191406 -8.300781 6.488281 -8.859375 5.5 -9.609375 C 4.507812 -10.335938 3.726562 -10.960938 3.15625 -11.484375 C 2.59375 -12.015625 2.128906 -12.644531 1.765625 -13.375 C 1.398438 -14.101562 1.21875 -14.957031 1.21875 -15.9375 C 1.21875 -17.476562 1.660156 -18.695312 2.546875 -19.59375 C 3.429688 -20.488281 4.582031 -20.9375 6 -20.9375 C 7.5 -20.9375 8.695312 -20.445312 9.59375 -19.46875 C 10.488281 -18.5 10.9375 -17.207031 10.9375 -15.59375 L 10.9375 -14.84375 C 10.9375 -14.644531 10.835938 -14.546875 10.640625 -14.546875 L 9.171875 -14.546875 C 8.972656 -14.546875 8.875 -14.644531 8.875 -14.84375 L 8.875 -15.625 C 8.875 -16.664062 8.613281 -17.503906 8.09375 -18.140625 C 7.570312 -18.785156 6.875 -19.109375 6 -19.109375 C 5.21875 -19.109375 4.566406 -18.828125 4.046875 -18.265625 C 3.535156 -17.703125 3.28125 -16.910156 3.28125 -15.890625 C 3.28125 -15.273438 3.394531 -14.734375 3.625 -14.265625 C 3.851562 -13.804688 4.191406 -13.367188 4.640625 -12.953125 C 5.097656 -12.535156 5.769531 -11.992188 6.65625 -11.328125 C 7.84375 -10.460938 8.722656 -9.757812 9.296875 -9.21875 C 9.878906 -8.675781 10.328125 -8.082031 10.640625 -7.4375 C 10.960938 -6.800781 11.125 -6.023438 11.125 -5.109375 C 11.125 -3.492188 10.660156 -2.195312 9.734375 -1.21875 C 8.804688 -0.25 7.613281 0.234375 6.15625 0.234375 Z M 6.15625 0.234375 "/></g></g></g><g fill="#77037b" fill-opacity="0.4"><g transform="translate(101.131207, 30.228537)"><g><path d="M 9.9375 0 C 9.757812 0 9.648438 -0.0859375 9.609375 -0.265625 L 8.875 -3.9375 C 8.875 -3.976562 8.859375 -4.003906 8.828125 -4.015625 C 8.796875 -4.035156 8.757812 -4.046875 8.71875 -4.046875 L 3.375 -4.046875 C 3.332031 -4.046875 3.296875 -4.035156 3.265625 -4.015625 C 3.234375 -4.003906 3.21875 -3.976562 3.21875 -3.9375 L 2.484375 -0.265625 C 2.460938 -0.0859375 2.351562 0 2.15625 0 L 0.65625 0 C 0.550781 0 0.472656 -0.0234375 0.421875 -0.078125 C 0.378906 -0.140625 0.367188 -0.222656 0.390625 -0.328125 L 4.828125 -20.4375 C 4.859375 -20.613281 4.960938 -20.703125 5.140625 -20.703125 L 6.921875 -20.703125 C 7.117188 -20.703125 7.226562 -20.613281 7.25 -20.4375 L 11.75 -0.328125 L 11.75 -0.265625 C 11.75 -0.0859375 11.65625 0 11.46875 0 Z M 3.609375 -5.890625 C 3.609375 -5.804688 3.640625 -5.765625 3.703125 -5.765625 L 8.375 -5.765625 C 8.425781 -5.765625 8.453125 -5.804688 8.453125 -5.890625 L 6.09375 -17.515625 C 6.070312 -17.566406 6.050781 -17.59375 6.03125 -17.59375 C 6.007812 -17.59375 5.988281 -17.566406 5.96875 -17.515625 Z M 3.609375 -5.890625 "/></g></g></g><g fill="#77037b" fill-opacity="0.4"><g transform="translate(113.258169, 30.228537)"><g><path d="M 11.453125 -19.171875 C 11.453125 -18.972656 11.351562 -18.875 11.15625 -18.875 L 4.34375 -18.875 C 4.269531 -18.875 4.234375 -18.832031 4.234375 -18.75 L 4.234375 -11.421875 C 4.234375 -11.335938 4.269531 -11.296875 4.34375 -11.296875 L 8.640625 -11.296875 C 8.835938 -11.296875 8.9375 -11.195312 8.9375 -11 L 8.9375 -9.734375 C 8.9375 -9.535156 8.835938 -9.4375 8.640625 -9.4375 L 4.34375 -9.4375 C 4.269531 -9.4375 4.234375 -9.394531 4.234375 -9.3125 L 4.234375 -0.296875 C 4.234375 -0.0976562 4.132812 0 3.9375 0 L 2.421875 0 C 2.222656 0 2.125 -0.0976562 2.125 -0.296875 L 2.125 -20.40625 C 2.125 -20.601562 2.222656 -20.703125 2.421875 -20.703125 L 11.15625 -20.703125 C 11.351562 -20.703125 11.453125 -20.601562 11.453125 -20.40625 Z M 11.453125 -19.171875 "/></g></g></g><g fill="#77037b" fill-opacity="0.4"><g transform="translate(125.207669, 30.228537)"><g><path d="M 11.5 -19.171875 C 11.5 -18.972656 11.398438 -18.875 11.203125 -18.875 L 4.34375 -18.875 C 4.269531 -18.875 4.234375 -18.832031 4.234375 -18.75 L 4.234375 -11.421875 C 4.234375 -11.335938 4.269531 -11.296875 4.34375 -11.296875 L 8.671875 -11.296875 C 8.867188 -11.296875 8.96875 -11.195312 8.96875 -11 L 8.96875 -9.734375 C 8.96875 -9.535156 8.867188 -9.4375 8.671875 -9.4375 L 4.34375 -9.4375 C 4.269531 -9.4375 4.234375 -9.394531 4.234375 -9.3125 L 4.234375 -1.953125 C 4.234375 -1.867188 4.269531 -1.828125 4.34375 -1.828125 L 11.203125 -1.828125 C 11.398438 -1.828125 11.5 -1.726562 11.5 -1.53125 L 11.5 -0.296875 C 11.5 -0.0976562 11.398438 0 11.203125 0 L 2.421875 0 C 2.222656 0 2.125 -0.0976562 2.125 -0.296875 L 2.125 -20.40625 C 2.125 -20.601562 2.222656 -20.703125 2.421875 -20.703125 L 11.203125 -20.703125 C 11.398438 -20.703125 11.5 -20.601562 11.5 -20.40625 Z M 11.5 -19.171875 "/></g></g></g><g fill="#77037b" fill-opacity="0.4"><g transform="translate(137.89662, 30.228537)"><g/></g></g><g fill="#77037b" fill-opacity="0.4"><g transform="translate(143.812217, 30.228537)"><g><path d="M 9.734375 -20.40625 C 9.734375 -20.601562 9.832031 -20.703125 10.03125 -20.703125 L 11.53125 -20.703125 C 11.726562 -20.703125 11.828125 -20.601562 11.828125 -20.40625 L 11.828125 -0.296875 C 11.828125 -0.0976562 11.726562 0 11.53125 0 L 10.03125 0 C 9.832031 0 9.734375 -0.0976562 9.734375 -0.296875 L 9.734375 -9.3125 C 9.734375 -9.394531 9.691406 -9.4375 9.609375 -9.4375 L 4.34375 -9.4375 C 4.269531 -9.4375 4.234375 -9.394531 4.234375 -9.3125 L 4.234375 -0.296875 C 4.234375 -0.0976562 4.132812 0 3.9375 0 L 2.421875 0 C 2.222656 0 2.125 -0.0976562 2.125 -0.296875 L 2.125 -20.40625 C 2.125 -20.601562 2.222656 -20.703125 2.421875 -20.703125 L 3.9375 -20.703125 C 4.132812 -20.703125 4.234375 -20.601562 4.234375 -20.40625 L 4.234375 -11.421875 C 4.234375 -11.335938 4.269531 -11.296875 4.34375 -11.296875 L 9.609375 -11.296875 C 9.691406 -11.296875 9.734375 -11.335938 9.734375 -11.421875 Z M 9.734375 -20.40625 "/></g></g></g><g fill="#77037b" fill-opacity="0.4"><g transform="translate(157.773015, 30.228537)"><g><path d="M 6.71875 0.234375 C 5.195312 0.234375 3.96875 -0.238281 3.03125 -1.1875 C 2.09375 -2.132812 1.625 -3.382812 1.625 -4.9375 L 1.625 -15.765625 C 1.625 -17.328125 2.09375 -18.578125 3.03125 -19.515625 C 3.96875 -20.460938 5.195312 -20.9375 6.71875 -20.9375 C 8.25 -20.9375 9.488281 -20.460938 10.4375 -19.515625 C 11.382812 -18.578125 11.859375 -17.328125 11.859375 -15.765625 L 11.859375 -4.9375 C 11.859375 -3.394531 11.382812 -2.144531 10.4375 -1.1875 C 9.488281 -0.238281 8.25 0.234375 6.71875 0.234375 Z M 6.71875 -1.59375 C 7.625 -1.59375 8.359375 -1.894531 8.921875 -2.5 C 9.484375 -3.101562 9.765625 -3.878906 9.765625 -4.828125 L 9.765625 -15.859375 C 9.765625 -16.816406 9.484375 -17.597656 8.921875 -18.203125 C 8.359375 -18.804688 7.625 -19.109375 6.71875 -19.109375 C 5.832031 -19.109375 5.113281 -18.804688 4.5625 -18.203125 C 4.007812 -17.597656 3.734375 -16.816406 3.734375 -15.859375 L 3.734375 -4.828125 C 3.734375 -3.878906 4.007812 -3.101562 4.5625 -2.5 C 5.113281 -1.894531 5.832031 -1.59375 6.71875 -1.59375 Z M 6.71875 -1.59375 "/></g></g></g><g fill="#77037b" fill-opacity="0.4"><g transform="translate(171.260571, 30.228537)"><g><path d="M 11.15625 -20.5 C 11.207031 -20.632812 11.320312 -20.703125 11.5 -20.703125 L 13.046875 -20.703125 C 13.242188 -20.703125 13.34375 -20.601562 13.34375 -20.40625 L 13.34375 -0.296875 C 13.34375 -0.0976562 13.242188 0 13.046875 0 L 11.53125 0 C 11.332031 0 11.234375 -0.0976562 11.234375 -0.296875 L 11.234375 -16.15625 C 11.234375 -16.207031 11.21875 -16.234375 11.1875 -16.234375 C 11.164062 -16.234375 11.132812 -16.210938 11.09375 -16.171875 L 8.015625 -9.796875 C 7.953125 -9.648438 7.851562 -9.578125 7.71875 -9.578125 C 7.5625 -9.578125 7.453125 -9.648438 7.390625 -9.796875 L 4.3125 -16.15625 C 4.28125 -16.1875 4.25 -16.203125 4.21875 -16.203125 C 4.1875 -16.203125 4.171875 -16.175781 4.171875 -16.125 L 4.171875 -0.296875 C 4.171875 -0.0976562 4.070312 0 3.875 0 L 2.359375 0 C 2.171875 0 2.078125 -0.0976562 2.078125 -0.296875 L 2.078125 -20.40625 C 2.078125 -20.601562 2.171875 -20.703125 2.359375 -20.703125 L 3.90625 -20.703125 C 4.082031 -20.703125 4.203125 -20.632812 4.265625 -20.5 L 7.625 -13.671875 C 7.644531 -13.628906 7.675781 -13.609375 7.71875 -13.609375 C 7.757812 -13.609375 7.789062 -13.628906 7.8125 -13.671875 Z M 11.15625 -20.5 "/></g></g></g><g fill="#77037b" fill-opacity="0.4"><g transform="translate(186.670688, 30.228537)"><g><path d="M 11.5 -19.171875 C 11.5 -18.972656 11.398438 -18.875 11.203125 -18.875 L 4.34375 -18.875 C 4.269531 -18.875 4.234375 -18.832031 4.234375 -18.75 L 4.234375 -11.421875 C 4.234375 -11.335938 4.269531 -11.296875 4.34375 -11.296875 L 8.671875 -11.296875 C 8.867188 -11.296875 8.96875 -11.195312 8.96875 -11 L 8.96875 -9.734375 C 8.96875 -9.535156 8.867188 -9.4375 8.671875 -9.4375 L 4.34375 -9.4375 C 4.269531 -9.4375 4.234375 -9.394531 4.234375 -9.3125 L 4.234375 -1.953125 C 4.234375 -1.867188 4.269531 -1.828125 4.34375 -1.828125 L 11.203125 -1.828125 C 11.398438 -1.828125 11.5 -1.726562 11.5 -1.53125 L 11.5 -0.296875 C 11.5 -0.0976562 11.398438 0 11.203125 0 L 2.421875 0 C 2.222656 0 2.125 -0.0976562 2.125 -0.296875 L 2.125 -20.40625 C 2.125 -20.601562 2.222656 -20.703125 2.421875 -20.703125 L 11.203125 -20.703125 C 11.398438 -20.703125 11.5 -20.601562 11.5 -20.40625 Z M 11.5 -19.171875 "/></g></g></g><g fill="#77037b" fill-opacity="1"><g transform="translate(1.772271, 29.600869)"><g><path d="M 11.453125 -19.171875 C 11.453125 -18.972656 11.351562 -18.875 11.15625 -18.875 L 4.34375 -18.875 C 4.269531 -18.875 4.234375 -18.832031 4.234375 -18.75 L 4.234375 -11.421875 C 4.234375 -11.335938 4.269531 -11.296875 4.34375 -11.296875 L 8.640625 -11.296875 C 8.835938 -11.296875 8.9375 -11.195312 8.9375 -11 L 8.9375 -9.734375 C 8.9375 -9.535156 8.835938 -9.4375 8.640625 -9.4375 L 4.34375 -9.4375 C 4.269531 -9.4375 4.234375 -9.394531 4.234375 -9.3125 L 4.234375 -0.296875 C 4.234375 -0.0976562 4.132812 0 3.9375 0 L 2.421875 0 C 2.222656 0 2.125 -0.0976562 2.125 -0.296875 L 2.125 -20.40625 C 2.125 -20.601562 2.222656 -20.703125 2.421875 -20.703125 L 11.15625 -20.703125 C 11.351562 -20.703125 11.453125 -20.601562 11.453125 -20.40625 Z M 11.453125 -19.171875 "/></g></g></g><g fill="#77037b" fill-opacity="1"><g transform="translate(13.721771, 29.600869)"><g><path d="M 2.421875 0 C 2.222656 0 2.125 -0.0976562 2.125 -0.296875 L 2.125 -20.40625 C 2.125 -20.601562 2.222656 -20.703125 2.421875 -20.703125 L 3.9375 -20.703125 C 4.132812 -20.703125 4.234375 -20.601562 4.234375 -20.40625 L 4.234375 -0.296875 C 4.234375 -0.0976562 4.132812 0 3.9375 0 Z M 2.421875 0 "/></g></g></g><g fill="#77037b" fill-opacity="1"><g transform="translate(20.081038, 29.600869)"><g><path d="M 10.40625 -20.40625 C 10.40625 -20.601562 10.503906 -20.703125 10.703125 -20.703125 L 12.1875 -20.703125 C 12.382812 -20.703125 12.484375 -20.601562 12.484375 -20.40625 L 12.484375 -0.296875 C 12.484375 -0.0976562 12.382812 0 12.1875 0 L 10.4375 0 C 10.28125 0 10.171875 -0.078125 10.109375 -0.234375 L 4.34375 -15.53125 C 4.320312 -15.59375 4.289062 -15.617188 4.25 -15.609375 C 4.21875 -15.597656 4.203125 -15.5625 4.203125 -15.5 L 4.234375 -0.296875 C 4.234375 -0.0976562 4.132812 0 3.9375 0 L 2.421875 0 C 2.222656 0 2.125 -0.0976562 2.125 -0.296875 L 2.125 -20.40625 C 2.125 -20.601562 2.222656 -20.703125 2.421875 -20.703125 L 4.140625 -20.703125 C 4.296875 -20.703125 4.40625 -20.625 4.46875 -20.46875 L 10.265625 -5.140625 C 10.285156 -5.085938 10.3125 -5.066406 10.34375 -5.078125 C 10.382812 -5.085938 10.40625 -5.117188 10.40625 -5.171875 Z M 10.40625 -20.40625 "/></g></g></g><g fill="#77037b" fill-opacity="1"><g transform="translate(34.66298, 29.600869)"><g><path d="M 2.421875 0 C 2.222656 0 2.125 -0.0976562 2.125 -0.296875 L 2.125 -20.40625 C 2.125 -20.601562 2.222656 -20.703125 2.421875 -20.703125 L 6.984375 -20.703125 C 8.503906 -20.703125 9.71875 -20.203125 10.625 -19.203125 C 11.53125 -18.210938 11.984375 -16.878906 11.984375 -15.203125 L 11.984375 -5.5 C 11.984375 -3.820312 11.53125 -2.484375 10.625 -1.484375 C 9.71875 -0.492188 8.503906 0 6.984375 0 Z M 4.234375 -1.953125 C 4.234375 -1.867188 4.269531 -1.828125 4.34375 -1.828125 L 6.953125 -1.859375 C 7.816406 -1.859375 8.507812 -2.191406 9.03125 -2.859375 C 9.550781 -3.535156 9.820312 -4.445312 9.84375 -5.59375 L 9.84375 -15.109375 C 9.84375 -16.273438 9.585938 -17.191406 9.078125 -17.859375 C 8.566406 -18.535156 7.859375 -18.875 6.953125 -18.875 L 4.34375 -18.875 C 4.269531 -18.875 4.234375 -18.832031 4.234375 -18.75 Z M 4.234375 -1.953125 "/></g></g></g><g fill="#77037b" fill-opacity="1"><g transform="translate(48.416733, 29.600869)"><g/></g></g><g fill="#77037b" fill-opacity="1"><g transform="translate(54.33233, 29.600869)"><g><path d="M 11.15625 -20.5 C 11.207031 -20.632812 11.320312 -20.703125 11.5 -20.703125 L 13.046875 -20.703125 C 13.242188 -20.703125 13.34375 -20.601562 13.34375 -20.40625 L 13.34375 -0.296875 C 13.34375 -0.0976562 13.242188 0 13.046875 0 L 11.53125 0 C 11.332031 0 11.234375 -0.0976562 11.234375 -0.296875 L 11.234375 -16.15625 C 11.234375 -16.207031 11.21875 -16.234375 11.1875 -16.234375 C 11.164062 -16.234375 11.132812 -16.210938 11.09375 -16.171875 L 8.015625 -9.796875 C 7.953125 -9.648438 7.851562 -9.578125 7.71875 -9.578125 C 7.5625 -9.578125 7.453125 -9.648438 7.390625 -9.796875 L 4.3125 -16.15625 C 4.28125 -16.1875 4.25 -16.203125 4.21875 -16.203125 C 4.1875 -16.203125 4.171875 -16.175781 4.171875 -16.125 L 4.171875 -0.296875 C 4.171875 -0.0976562 4.070312 0 3.875 0 L 2.359375 0 C 2.171875 0 2.078125 -0.0976562 2.078125 -0.296875 L 2.078125 -20.40625 C 2.078125 -20.601562 2.171875 -20.703125 2.359375 -20.703125 L 3.90625 -20.703125 C 4.082031 -20.703125 4.203125 -20.632812 4.265625 -20.5 L 7.625 -13.671875 C 7.644531 -13.628906 7.675781 -13.609375 7.71875 -13.609375 C 7.757812 -13.609375 7.789062 -13.628906 7.8125 -13.671875 Z M 11.15625 -20.5 "/></g></g></g><g fill="#77037b" fill-opacity="1"><g transform="translate(69.742447, 29.600869)"><g><path d="M 5.53125 -0.03125 C 5.332031 -0.03125 5.234375 -0.128906 5.234375 -0.328125 L 5.234375 -9.171875 C 5.234375 -9.242188 5.222656 -9.289062 5.203125 -9.3125 L 1.09375 -20.34375 L 1.0625 -20.46875 C 1.0625 -20.625 1.148438 -20.703125 1.328125 -20.703125 L 2.921875 -20.703125 C 3.097656 -20.703125 3.21875 -20.625 3.28125 -20.46875 L 6.1875 -11.796875 C 6.207031 -11.765625 6.234375 -11.75 6.265625 -11.75 C 6.304688 -11.75 6.335938 -11.765625 6.359375 -11.796875 L 9.265625 -20.46875 C 9.316406 -20.625 9.429688 -20.703125 9.609375 -20.703125 L 11.203125 -20.703125 C 11.304688 -20.703125 11.378906 -20.664062 11.421875 -20.59375 C 11.472656 -20.53125 11.484375 -20.445312 11.453125 -20.34375 L 7.359375 -9.3125 C 7.335938 -9.289062 7.328125 -9.242188 7.328125 -9.171875 L 7.328125 -0.328125 C 7.328125 -0.128906 7.234375 -0.03125 7.046875 -0.03125 Z M 5.53125 -0.03125 "/></g></g></g><g fill="#77037b" fill-opacity="1"><g transform="translate(82.283508, 29.600869)"><g/></g></g><g fill="#77037b" fill-opacity="1"><g transform="translate(88.199104, 29.600869)"><g><path d="M 6.15625 0.234375 C 4.695312 0.234375 3.515625 -0.242188 2.609375 -1.203125 C 1.703125 -2.171875 1.25 -3.4375 1.25 -5 L 1.25 -5.671875 C 1.25 -5.867188 1.34375 -5.96875 1.53125 -5.96875 L 2.984375 -5.96875 C 3.179688 -5.96875 3.28125 -5.867188 3.28125 -5.671875 L 3.28125 -5.09375 C 3.28125 -4.039062 3.546875 -3.191406 4.078125 -2.546875 C 4.609375 -1.910156 5.300781 -1.59375 6.15625 -1.59375 C 6.976562 -1.59375 7.664062 -1.898438 8.21875 -2.515625 C 8.769531 -3.128906 9.046875 -3.9375 9.046875 -4.9375 C 9.046875 -5.601562 8.910156 -6.175781 8.640625 -6.65625 C 8.378906 -7.144531 8.035156 -7.570312 7.609375 -7.9375 C 7.191406 -8.300781 6.488281 -8.859375 5.5 -9.609375 C 4.507812 -10.335938 3.726562 -10.960938 3.15625 -11.484375 C 2.59375 -12.015625 2.128906 -12.644531 1.765625 -13.375 C 1.398438 -14.101562 1.21875 -14.957031 1.21875 -15.9375 C 1.21875 -17.476562 1.660156 -18.695312 2.546875 -19.59375 C 3.429688 -20.488281 4.582031 -20.9375 6 -20.9375 C 7.5 -20.9375 8.695312 -20.445312 9.59375 -19.46875 C 10.488281 -18.5 10.9375 -17.207031 10.9375 -15.59375 L 10.9375 -14.84375 C 10.9375 -14.644531 10.835938 -14.546875 10.640625 -14.546875 L 9.171875 -14.546875 C 8.972656 -14.546875 8.875 -14.644531 8.875 -14.84375 L 8.875 -15.625 C 8.875 -16.664062 8.613281 -17.503906 8.09375 -18.140625 C 7.570312 -18.785156 6.875 -19.109375 6 -19.109375 C 5.21875 -19.109375 4.566406 -18.828125 4.046875 -18.265625 C 3.535156 -17.703125 3.28125 -16.910156 3.28125 -15.890625 C 3.28125 -15.273438 3.394531 -14.734375 3.625 -14.265625 C 3.851562 -13.804688 4.191406 -13.367188 4.640625 -12.953125 C 5.097656 -12.535156 5.769531 -11.992188 6.65625 -11.328125 C 7.84375 -10.460938 8.722656 -9.757812 9.296875 -9.21875 C 9.878906 -8.675781 10.328125 -8.082031 10.640625 -7.4375 C 10.960938 -6.800781 11.125 -6.023438 11.125 -5.109375 C 11.125 -3.492188 10.660156 -2.195312 9.734375 -1.21875 C 8.804688 -0.25 7.613281 0.234375 6.15625 0.234375 Z M 6.15625 0.234375 "/></g></g></g><g fill="#77037b" fill-opacity="1"><g transform="translate(100.503539, 29.600869)"><g><path d="M 9.9375 0 C 9.757812 0 9.648438 -0.0859375 9.609375 -0.265625 L 8.875 -3.9375 C 8.875 -3.976562 8.859375 -4.003906 8.828125 -4.015625 C 8.796875 -4.035156 8.757812 -4.046875 8.71875 -4.046875 L 3.375 -4.046875 C 3.332031 -4.046875 3.296875 -4.035156 3.265625 -4.015625 C 3.234375 -4.003906 3.21875 -3.976562 3.21875 -3.9375 L 2.484375 -0.265625 C 2.460938 -0.0859375 2.351562 0 2.15625 0 L 0.65625 0 C 0.550781 0 0.472656 -0.0234375 0.421875 -0.078125 C 0.378906 -0.140625 0.367188 -0.222656 0.390625 -0.328125 L 4.828125 -20.4375 C 4.859375 -20.613281 4.960938 -20.703125 5.140625 -20.703125 L 6.921875 -20.703125 C 7.117188 -20.703125 7.226562 -20.613281 7.25 -20.4375 L 11.75 -0.328125 L 11.75 -0.265625 C 11.75 -0.0859375 11.65625 0 11.46875 0 Z M 3.609375 -5.890625 C 3.609375 -5.804688 3.640625 -5.765625 3.703125 -5.765625 L 8.375 -5.765625 C 8.425781 -5.765625 8.453125 -5.804688 8.453125 -5.890625 L 6.09375 -17.515625 C 6.070312 -17.566406 6.050781 -17.59375 6.03125 -17.59375 C 6.007812 -17.59375 5.988281 -17.566406 5.96875 -17.515625 Z M 3.609375 -5.890625 "/></g></g></g><g fill="#77037b" fill-opacity="1"><g transform="translate(112.630501, 29.600869)"><g><path d="M 11.453125 -19.171875 C 11.453125 -18.972656 11.351562 -18.875 11.15625 -18.875 L 4.34375 -18.875 C 4.269531 -18.875 4.234375 -18.832031 4.234375 -18.75 L 4.234375 -11.421875 C 4.234375 -11.335938 4.269531 -11.296875 4.34375 -11.296875 L 8.640625 -11.296875 C 8.835938 -11.296875 8.9375 -11.195312 8.9375 -11 L 8.9375 -9.734375 C 8.9375 -9.535156 8.835938 -9.4375 8.640625 -9.4375 L 4.34375 -9.4375 C 4.269531 -9.4375 4.234375 -9.394531 4.234375 -9.3125 L 4.234375 -0.296875 C 4.234375 -0.0976562 4.132812 0 3.9375 0 L 2.421875 0 C 2.222656 0 2.125 -0.0976562 2.125 -0.296875 L 2.125 -20.40625 C 2.125 -20.601562 2.222656 -20.703125 2.421875 -20.703125 L 11.15625 -20.703125 C 11.351562 -20.703125 11.453125 -20.601562 11.453125 -20.40625 Z M 11.453125 -19.171875 "/></g></g></g><g fill="#77037b" fill-opacity="1"><g transform="translate(124.580001, 29.600869)"><g><path d="M 11.5 -19.171875 C 11.5 -18.972656 11.398438 -18.875 11.203125 -18.875 L 4.34375 -18.875 C 4.269531 -18.875 4.234375 -18.832031 4.234375 -18.75 L 4.234375 -11.421875 C 4.234375 -11.335938 4.269531 -11.296875 4.34375 -11.296875 L 8.671875 -11.296875 C 8.867188 -11.296875 8.96875 -11.195312 8.96875 -11 L 8.96875 -9.734375 C 8.96875 -9.535156 8.867188 -9.4375 8.671875 -9.4375 L 4.34375 -9.4375 C 4.269531 -9.4375 4.234375 -9.394531 4.234375 -9.3125 L 4.234375 -1.953125 C 4.234375 -1.867188 4.269531 -1.828125 4.34375 -1.828125 L 11.203125 -1.828125 C 11.398438 -1.828125 11.5 -1.726562 11.5 -1.53125 L 11.5 -0.296875 C 11.5 -0.0976562 11.398438 0 11.203125 0 L 2.421875 0 C 2.222656 0 2.125 -0.0976562 2.125 -0.296875 L 2.125 -20.40625 C 2.125 -20.601562 2.222656 -20.703125 2.421875 -20.703125 L 11.203125 -20.703125 C 11.398438 -20.703125 11.5 -20.601562 11.5 -20.40625 Z M 11.5 -19.171875 "/></g></g></g><g fill="#77037b" fill-opacity="1"><g transform="translate(137.268953, 29.600869)"><g/></g></g><g fill="#77037b" fill-opacity="1"><g transform="translate(143.184549, 29.600869)"><g><path d="M 9.734375 -20.40625 C 9.734375 -20.601562 9.832031 -20.703125 10.03125 -20.703125 L 11.53125 -20.703125 C 11.726562 -20.703125 11.828125 -20.601562 11.828125 -20.40625 L 11.828125 -0.296875 C 11.828125 -0.0976562 11.726562 0 11.53125 0 L 10.03125 0 C 9.832031 0 9.734375 -0.0976562 9.734375 -0.296875 L 9.734375 -9.3125 C 9.734375 -9.394531 9.691406 -9.4375 9.609375 -9.4375 L 4.34375 -9.4375 C 4.269531 -9.4375 4.234375 -9.394531 4.234375 -9.3125 L 4.234375 -0.296875 C 4.234375 -0.0976562 4.132812 0 3.9375 0 L 2.421875 0 C 2.222656 0 2.125 -0.0976562 2.125 -0.296875 L 2.125 -20.40625 C 2.125 -20.601562 2.222656 -20.703125 2.421875 -20.703125 L 3.9375 -20.703125 C 4.132812 -20.703125 4.234375 -20.601562 4.234375 -20.40625 L 4.234375 -11.421875 C 4.234375 -11.335938 4.269531 -11.296875 4.34375 -11.296875 L 9.609375 -11.296875 C 9.691406 -11.296875 9.734375 -11.335938 9.734375 -11.421875 Z M 9.734375 -20.40625 "/></g></g></g><g fill="#77037b" fill-opacity="1"><g transform="translate(157.145347, 29.600869)"><g><path d="M 6.71875 0.234375 C 5.195312 0.234375 3.96875 -0.238281 3.03125 -1.1875 C 2.09375 -2.132812 1.625 -3.382812 1.625 -4.9375 L 1.625 -15.765625 C 1.625 -17.328125 2.09375 -18.578125 3.03125 -19.515625 C 3.96875 -20.460938 5.195312 -20.9375 6.71875 -20.9375 C 8.25 -20.9375 9.488281 -20.460938 10.4375 -19.515625 C 11.382812 -18.578125 11.859375 -17.328125 11.859375 -15.765625 L 11.859375 -4.9375 C 11.859375 -3.394531 11.382812 -2.144531 10.4375 -1.1875 C 9.488281 -0.238281 8.25 0.234375 6.71875 0.234375 Z M 6.71875 -1.59375 C 7.625 -1.59375 8.359375 -1.894531 8.921875 -2.5 C 9.484375 -3.101562 9.765625 -3.878906 9.765625 -4.828125 L 9.765625 -15.859375 C 9.765625 -16.816406 9.484375 -17.597656 8.921875 -18.203125 C 8.359375 -18.804688 7.625 -19.109375 6.71875 -19.109375 C 5.832031 -19.109375 5.113281 -18.804688 4.5625 -18.203125 C 4.007812 -17.597656 3.734375 -16.816406 3.734375 -15.859375 L 3.734375 -4.828125 C 3.734375 -3.878906 4.007812 -3.101562 4.5625 -2.5 C 5.113281 -1.894531 5.832031 -1.59375 6.71875 -1.59375 Z M 6.71875 -1.59375 "/></g></g></g><g fill="#77037b" fill-opacity="1"><g transform="translate(170.632903, 29.600869)"><g><path d="M 11.15625 -20.5 C 11.207031 -20.632812 11.320312 -20.703125 11.5 -20.703125 L 13.046875 -20.703125 C 13.242188 -20.703125 13.34375 -20.601562 13.34375 -20.40625 L 13.34375 -0.296875 C 13.34375 -0.0976562 13.242188 0 13.046875 0 L 11.53125 0 C 11.332031 0 11.234375 -0.0976562 11.234375 -0.296875 L 11.234375 -16.15625 C 11.234375 -16.207031 11.21875 -16.234375 11.1875 -16.234375 C 11.164062 -16.234375 11.132812 -16.210938 11.09375 -16.171875 L 8.015625 -9.796875 C 7.953125 -9.648438 7.851562 -9.578125 7.71875 -9.578125 C 7.5625 -9.578125 7.453125 -9.648438 7.390625 -9.796875 L 4.3125 -16.15625 C 4.28125 -16.1875 4.25 -16.203125 4.21875 -16.203125 C 4.1875 -16.203125 4.171875 -16.175781 4.171875 -16.125 L 4.171875 -0.296875 C 4.171875 -0.0976562 4.070312 0 3.875 0 L 2.359375 0 C 2.171875 0 2.078125 -0.0976562 2.078125 -0.296875 L 2.078125 -20.40625 C 2.078125 -20.601562 2.171875 -20.703125 2.359375 -20.703125 L 3.90625 -20.703125 C 4.082031 -20.703125 4.203125 -20.632812 4.265625 -20.5 L 7.625 -13.671875 C 7.644531 -13.628906 7.675781 -13.609375 7.71875 -13.609375 C 7.757812 -13.609375 7.789062 -13.628906 7.8125 -13.671875 Z M 11.15625 -20.5 "/></g></g></g><g fill="#77037b" fill-opacity="1"><g transform="translate(186.04302, 29.600869)"><g><path d="M 11.5 -19.171875 C 11.5 -18.972656 11.398438 -18.875 11.203125 -18.875 L 4.34375 -18.875 C 4.269531 -18.875 4.234375 -18.832031 4.234375 -18.75 L 4.234375 -11.421875 C 4.234375 -11.335938 4.269531 -11.296875 4.34375 -11.296875 L 8.671875 -11.296875 C 8.867188 -11.296875 8.96875 -11.195312 8.96875 -11 L 8.96875 -9.734375 C 8.96875 -9.535156 8.867188 -9.4375 8.671875 -9.4375 L 4.34375 -9.4375 C 4.269531 -9.4375 4.234375 -9.394531 4.234375 -9.3125 L 4.234375 -1.953125 C 4.234375 -1.867188 4.269531 -1.828125 4.34375 -1.828125 L 11.203125 -1.828125 C 11.398438 -1.828125 11.5 -1.726562 11.5 -1.53125 L 11.5 -0.296875 C 11.5 -0.0976562 11.398438 0 11.203125 0 L 2.421875 0 C 2.222656 0 2.125 -0.0976562 2.125 -0.296875 L 2.125 -20.40625 C 2.125 -20.601562 2.222656 -20.703125 2.421875 -20.703125 L 11.203125 -20.703125 C 11.398438 -20.703125 11.5 -20.601562 11.5 -20.40625 Z M 11.5 -19.171875 "/></g></g></g></g></g></g></g></svg>