<svg xmlns="http://www.w3.org/2000/svg" xmlns:xlink="http://www.w3.org/1999/xlink" width="662" zoomAndPan="magnify" viewBox="0 0 496.5 177.000001" height="236" preserveAspectRatio="xMidYMid meet" version="1.0"><defs><filter x="0%" y="0%" width="100%" height="100%" id="37bdd0cc26"><feColorMatrix values="0 0 0 0 1 0 0 0 0 1 0 0 0 0 1 0 0 0 1 0" color-interpolation-filters="sRGB"/></filter><g/><clipPath id="ca2555c509"><path d="M 149 140 L 349 140 L 349 176.003906 L 149 176.003906 Z M 149 140 " clip-rule="nonzero"/></clipPath><mask id="80a7f5aa5e"><g filter="url(#37bdd0cc26)"><rect x="-49.65" width="595.8" fill="#000000" y="-17.7" height="212.400001" fill-opacity="0.7569"/></g></mask><clipPath id="c05a9407d9"><rect x="0" width="200" y="0" height="37"/></clipPath></defs><g fill="#77037b" fill-opacity="0.4"><g transform="translate(126.163089, 135.121938)"><g><path d="M 61.140625 -73.3125 C 61.046875 -72.695312 60.800781 -72.210938 60.40625 -71.859375 C 60.007812 -71.503906 59.503906 -71.328125 58.890625 -71.328125 L 34.265625 -71.328125 C 33.828125 -71.328125 33.609375 -71.101562 33.609375 -70.65625 L 32.015625 -57.6875 C 31.847656 -57.25 32.023438 -57.03125 32.546875 -57.03125 L 45.390625 -57.03125 C 46.003906 -57.03125 46.460938 -56.851562 46.765625 -56.5 C 47.078125 -56.144531 47.191406 -55.660156 47.109375 -55.046875 L 44.984375 -37.71875 C 44.722656 -36.394531 43.972656 -35.734375 42.734375 -35.734375 L 29.90625 -35.734375 C 29.46875 -35.734375 29.25 -35.507812 29.25 -35.0625 L 25.140625 -1.984375 C 25.054688 -1.367188 24.8125 -0.882812 24.40625 -0.53125 C 24.007812 -0.175781 23.550781 0 23.03125 0 L 2.640625 0 C 2.117188 0 1.703125 -0.175781 1.390625 -0.53125 C 1.078125 -0.882812 0.96875 -1.367188 1.0625 -1.984375 L 11.90625 -90.640625 C 12 -91.265625 12.242188 -91.75 12.640625 -92.09375 C 13.035156 -92.445312 13.5 -92.625 14.03125 -92.625 L 61.53125 -92.625 C 62.144531 -92.625 62.609375 -92.445312 62.921875 -92.09375 C 63.234375 -91.75 63.34375 -91.265625 63.25 -90.640625 Z M 61.140625 -73.3125 "/></g></g></g><g fill="#77037b" fill-opacity="0.4"><g transform="translate(181.604654, 135.121938)"><g><path d="M 54.390625 -91.171875 C 54.921875 -92.140625 55.710938 -92.625 56.765625 -92.625 L 76.875 -92.625 C 77.40625 -92.625 77.828125 -92.445312 78.140625 -92.09375 C 78.453125 -91.75 78.5625 -91.265625 78.46875 -90.640625 L 67.625 -1.984375 C 67.53125 -1.367188 67.285156 -0.882812 66.890625 -0.53125 C 66.492188 -0.175781 66.03125 0 65.5 0 L 45.125 0 C 44.59375 0 44.171875 -0.175781 43.859375 -0.53125 C 43.554688 -0.882812 43.445312 -1.367188 43.53125 -1.984375 L 50.15625 -56.109375 C 50.238281 -56.460938 50.171875 -56.660156 49.953125 -56.703125 C 49.734375 -56.742188 49.535156 -56.632812 49.359375 -56.375 L 40.359375 -43.40625 L 38.765625 -41.015625 L 38.640625 -41.015625 L 31.890625 -56.375 C 31.804688 -56.632812 31.675781 -56.742188 31.5 -56.703125 C 31.320312 -56.660156 31.1875 -56.460938 31.09375 -56.109375 L 24.484375 -1.984375 C 24.390625 -1.367188 24.164062 -0.882812 23.8125 -0.53125 C 23.46875 -0.175781 22.984375 0 22.359375 0 L 2.125 0 C 1.5 0 1.03125 -0.175781 0.71875 -0.53125 C 0.414062 -0.882812 0.304688 -1.367188 0.390625 -1.984375 L 11.25 -90.640625 C 11.332031 -91.265625 11.570312 -91.75 11.96875 -92.09375 C 12.375 -92.445312 12.835938 -92.625 13.359375 -92.625 L 33.484375 -92.625 C 34.535156 -92.625 35.238281 -92.140625 35.59375 -91.171875 L 42.609375 -73.96875 C 42.785156 -73.613281 43.050781 -73.613281 43.40625 -73.96875 Z M 54.390625 -91.171875 "/></g></g></g><g fill="#000000" fill-opacity="1"><g transform="translate(123.355701, 132.314549)"><g><path d="M 61.140625 -73.3125 C 61.046875 -72.695312 60.800781 -72.210938 60.40625 -71.859375 C 60.007812 -71.503906 59.503906 -71.328125 58.890625 -71.328125 L 34.265625 -71.328125 C 33.828125 -71.328125 33.609375 -71.101562 33.609375 -70.65625 L 32.015625 -57.6875 C 31.847656 -57.25 32.023438 -57.03125 32.546875 -57.03125 L 45.390625 -57.03125 C 46.003906 -57.03125 46.460938 -56.851562 46.765625 -56.5 C 47.078125 -56.144531 47.191406 -55.660156 47.109375 -55.046875 L 44.984375 -37.71875 C 44.722656 -36.394531 43.972656 -35.734375 42.734375 -35.734375 L 29.90625 -35.734375 C 29.46875 -35.734375 29.25 -35.507812 29.25 -35.0625 L 25.140625 -1.984375 C 25.054688 -1.367188 24.8125 -0.882812 24.40625 -0.53125 C 24.007812 -0.175781 23.550781 0 23.03125 0 L 2.640625 0 C 2.117188 0 1.703125 -0.175781 1.390625 -0.53125 C 1.078125 -0.882812 0.96875 -1.367188 1.0625 -1.984375 L 11.90625 -90.640625 C 12 -91.265625 12.242188 -91.75 12.640625 -92.09375 C 13.035156 -92.445312 13.5 -92.625 14.03125 -92.625 L 61.53125 -92.625 C 62.144531 -92.625 62.609375 -92.445312 62.921875 -92.09375 C 63.234375 -91.75 63.34375 -91.265625 63.25 -90.640625 Z M 61.140625 -73.3125 "/></g></g></g><g fill="#000000" fill-opacity="1"><g transform="translate(178.797265, 132.314549)"><g><path d="M 54.390625 -91.171875 C 54.921875 -92.140625 55.710938 -92.625 56.765625 -92.625 L 76.875 -92.625 C 77.40625 -92.625 77.828125 -92.445312 78.140625 -92.09375 C 78.453125 -91.75 78.5625 -91.265625 78.46875 -90.640625 L 67.625 -1.984375 C 67.53125 -1.367188 67.285156 -0.882812 66.890625 -0.53125 C 66.492188 -0.175781 66.03125 0 65.5 0 L 45.125 0 C 44.59375 0 44.171875 -0.175781 43.859375 -0.53125 C 43.554688 -0.882812 43.445312 -1.367188 43.53125 -1.984375 L 50.15625 -56.109375 C 50.238281 -56.460938 50.171875 -56.660156 49.953125 -56.703125 C 49.734375 -56.742188 49.535156 -56.632812 49.359375 -56.375 L 40.359375 -43.40625 L 38.765625 -41.015625 L 38.640625 -41.015625 L 31.890625 -56.375 C 31.804688 -56.632812 31.675781 -56.742188 31.5 -56.703125 C 31.320312 -56.660156 31.1875 -56.460938 31.09375 -56.109375 L 24.484375 -1.984375 C 24.390625 -1.367188 24.164062 -0.882812 23.8125 -0.53125 C 23.46875 -0.175781 22.984375 0 22.359375 0 L 2.125 0 C 1.5 0 1.03125 -0.175781 0.71875 -0.53125 C 0.414062 -0.882812 0.304688 -1.367188 0.390625 -1.984375 L 11.25 -90.640625 C 11.332031 -91.265625 11.570312 -91.75 11.96875 -92.09375 C 12.375 -92.445312 12.835938 -92.625 13.359375 -92.625 L 33.484375 -92.625 C 34.535156 -92.625 35.238281 -92.140625 35.59375 -91.171875 L 42.609375 -73.96875 C 42.785156 -73.613281 43.050781 -73.613281 43.40625 -73.96875 Z M 54.390625 -91.171875 "/></g></g></g><g fill="#77037b" fill-opacity="0.4"><g transform="translate(254.232479, 135.121938)"><g><path d="M 27.53125 1.0625 C 19.9375 1.0625 13.929688 -0.898438 9.515625 -4.828125 C 5.109375 -8.753906 2.90625 -13.984375 2.90625 -20.515625 C 2.90625 -21.128906 2.992188 -22.226562 3.171875 -23.8125 L 3.703125 -27.921875 C 3.796875 -28.535156 4.039062 -29.019531 4.4375 -29.375 C 4.832031 -29.726562 5.296875 -29.90625 5.828125 -29.90625 L 25.9375 -29.90625 C 26.46875 -29.90625 26.882812 -29.726562 27.1875 -29.375 C 27.5 -29.019531 27.613281 -28.535156 27.53125 -27.921875 L 27.265625 -25.015625 C 27.085938 -23.597656 27.257812 -22.445312 27.78125 -21.5625 C 28.3125 -20.6875 29.109375 -20.25 30.171875 -20.25 C 31.316406 -20.25 32.285156 -20.734375 33.078125 -21.703125 C 33.867188 -22.671875 34.265625 -23.863281 34.265625 -25.28125 C 34.265625 -26.601562 33.625 -27.96875 32.34375 -29.375 C 31.070312 -30.789062 28.628906 -32.953125 25.015625 -35.859375 C 21.484375 -38.773438 18.566406 -41.351562 16.265625 -43.59375 C 13.972656 -45.84375 11.988281 -48.625 10.3125 -51.9375 C 8.644531 -55.25 7.8125 -59.019531 7.8125 -63.25 C 7.8125 -64.039062 7.898438 -65.410156 8.078125 -67.359375 C 9.046875 -75.203125 12.304688 -81.550781 17.859375 -86.40625 C 23.421875 -91.257812 30.347656 -93.6875 38.640625 -93.6875 C 46.222656 -93.6875 52.195312 -91.65625 56.5625 -87.59375 C 60.9375 -83.539062 63.125 -78.070312 63.125 -71.1875 C 63.125 -70.394531 63.035156 -69.117188 62.859375 -67.359375 L 62.453125 -64.4375 C 62.367188 -63.820312 62.128906 -63.335938 61.734375 -62.984375 C 61.335938 -62.628906 60.875 -62.453125 60.34375 -62.453125 L 40.359375 -62.453125 C 39.828125 -62.453125 39.40625 -62.628906 39.09375 -62.984375 C 38.789062 -63.335938 38.679688 -63.820312 38.765625 -64.4375 L 39.171875 -67.890625 C 39.253906 -69.210938 39.007812 -70.289062 38.4375 -71.125 C 37.863281 -71.96875 37.050781 -72.390625 36 -72.390625 C 34.757812 -72.390625 33.742188 -71.859375 32.953125 -70.796875 C 32.160156 -69.734375 31.765625 -68.320312 31.765625 -66.5625 C 31.765625 -65.0625 32.378906 -63.515625 33.609375 -61.921875 C 34.847656 -60.335938 37.144531 -58.132812 40.5 -55.3125 C 44.988281 -51.519531 48.425781 -48.453125 50.8125 -46.109375 C 53.195312 -43.773438 55.070312 -41.21875 56.4375 -38.4375 C 57.800781 -35.65625 58.484375 -32.503906 58.484375 -28.984375 C 58.484375 -28.273438 58.394531 -27.039062 58.21875 -25.28125 C 57.164062 -17.25 53.835938 -10.847656 48.234375 -6.078125 C 42.628906 -1.316406 35.726562 1.0625 27.53125 1.0625 Z M 27.53125 1.0625 "/></g></g></g><g fill="#77037b" fill-opacity="1"><g transform="translate(251.42509, 132.314549)"><g><path d="M 27.53125 1.0625 C 19.9375 1.0625 13.929688 -0.898438 9.515625 -4.828125 C 5.109375 -8.753906 2.90625 -13.984375 2.90625 -20.515625 C 2.90625 -21.128906 2.992188 -22.226562 3.171875 -23.8125 L 3.703125 -27.921875 C 3.796875 -28.535156 4.039062 -29.019531 4.4375 -29.375 C 4.832031 -29.726562 5.296875 -29.90625 5.828125 -29.90625 L 25.9375 -29.90625 C 26.46875 -29.90625 26.882812 -29.726562 27.1875 -29.375 C 27.5 -29.019531 27.613281 -28.535156 27.53125 -27.921875 L 27.265625 -25.015625 C 27.085938 -23.597656 27.257812 -22.445312 27.78125 -21.5625 C 28.3125 -20.6875 29.109375 -20.25 30.171875 -20.25 C 31.316406 -20.25 32.285156 -20.734375 33.078125 -21.703125 C 33.867188 -22.671875 34.265625 -23.863281 34.265625 -25.28125 C 34.265625 -26.601562 33.625 -27.96875 32.34375 -29.375 C 31.070312 -30.789062 28.628906 -32.953125 25.015625 -35.859375 C 21.484375 -38.773438 18.566406 -41.351562 16.265625 -43.59375 C 13.972656 -45.84375 11.988281 -48.625 10.3125 -51.9375 C 8.644531 -55.25 7.8125 -59.019531 7.8125 -63.25 C 7.8125 -64.039062 7.898438 -65.410156 8.078125 -67.359375 C 9.046875 -75.203125 12.304688 -81.550781 17.859375 -86.40625 C 23.421875 -91.257812 30.347656 -93.6875 38.640625 -93.6875 C 46.222656 -93.6875 52.195312 -91.65625 56.5625 -87.59375 C 60.9375 -83.539062 63.125 -78.070312 63.125 -71.1875 C 63.125 -70.394531 63.035156 -69.117188 62.859375 -67.359375 L 62.453125 -64.4375 C 62.367188 -63.820312 62.128906 -63.335938 61.734375 -62.984375 C 61.335938 -62.628906 60.875 -62.453125 60.34375 -62.453125 L 40.359375 -62.453125 C 39.828125 -62.453125 39.40625 -62.628906 39.09375 -62.984375 C 38.789062 -63.335938 38.679688 -63.820312 38.765625 -64.4375 L 39.171875 -67.890625 C 39.253906 -69.210938 39.007812 -70.289062 38.4375 -71.125 C 37.863281 -71.96875 37.050781 -72.390625 36 -72.390625 C 34.757812 -72.390625 33.742188 -71.859375 32.953125 -70.796875 C 32.160156 -69.734375 31.765625 -68.320312 31.765625 -66.5625 C 31.765625 -65.0625 32.378906 -63.515625 33.609375 -61.921875 C 34.847656 -60.335938 37.144531 -58.132812 40.5 -55.3125 C 44.988281 -51.519531 48.425781 -48.453125 50.8125 -46.109375 C 53.195312 -43.773438 55.070312 -41.21875 56.4375 -38.4375 C 57.800781 -35.65625 58.484375 -32.503906 58.484375 -28.984375 C 58.484375 -28.273438 58.394531 -27.039062 58.21875 -25.28125 C 57.164062 -17.25 53.835938 -10.847656 48.234375 -6.078125 C 42.628906 -1.316406 35.726562 1.0625 27.53125 1.0625 Z M 27.53125 1.0625 "/></g></g></g><g fill="#77037b" fill-opacity="0.4"><g transform="translate(313.61928, 135.121938)"><g><path d="M 43.53125 -90.640625 C 43.625 -91.265625 43.847656 -91.75 44.203125 -92.09375 C 44.554688 -92.445312 45.039062 -92.625 45.65625 -92.625 L 65.90625 -92.625 C 66.519531 -92.625 66.976562 -92.445312 67.28125 -92.09375 C 67.59375 -91.75 67.707031 -91.265625 67.625 -90.640625 L 56.765625 -1.984375 C 56.679688 -1.367188 56.441406 -0.882812 56.046875 -0.53125 C 55.648438 -0.175781 55.140625 0 54.515625 0 L 34.265625 0 C 33.648438 0 33.1875 -0.175781 32.875 -0.53125 C 32.570312 -0.882812 32.460938 -1.367188 32.546875 -1.984375 L 36.65625 -35.0625 C 36.65625 -35.507812 36.476562 -35.734375 36.125 -35.734375 L 29.90625 -35.734375 C 29.46875 -35.734375 29.25 -35.507812 29.25 -35.0625 L 25.140625 -1.984375 C 25.054688 -1.367188 24.8125 -0.882812 24.40625 -0.53125 C 24.007812 -0.175781 23.550781 0 23.03125 0 L 2.640625 0 C 2.117188 0 1.703125 -0.175781 1.390625 -0.53125 C 1.078125 -0.882812 0.96875 -1.367188 1.0625 -1.984375 L 11.90625 -90.640625 C 12 -91.265625 12.242188 -91.75 12.640625 -92.09375 C 13.035156 -92.445312 13.5 -92.625 14.03125 -92.625 L 34.40625 -92.625 C 34.9375 -92.625 35.351562 -92.445312 35.65625 -92.09375 C 35.96875 -91.75 36.082031 -91.265625 36 -90.640625 L 32.015625 -57.6875 C 31.847656 -57.25 32.023438 -57.03125 32.546875 -57.03125 L 38.765625 -57.03125 C 38.941406 -57.03125 39.097656 -57.097656 39.234375 -57.234375 C 39.367188 -57.367188 39.4375 -57.519531 39.4375 -57.6875 Z M 43.53125 -90.640625 "/></g></g></g><g fill="#000000" fill-opacity="1"><g transform="translate(310.811891, 132.314549)"><g><path d="M 43.53125 -90.640625 C 43.625 -91.265625 43.847656 -91.75 44.203125 -92.09375 C 44.554688 -92.445312 45.039062 -92.625 45.65625 -92.625 L 65.90625 -92.625 C 66.519531 -92.625 66.976562 -92.445312 67.28125 -92.09375 C 67.59375 -91.75 67.707031 -91.265625 67.625 -90.640625 L 56.765625 -1.984375 C 56.679688 -1.367188 56.441406 -0.882812 56.046875 -0.53125 C 55.648438 -0.175781 55.140625 0 54.515625 0 L 34.265625 0 C 33.648438 0 33.1875 -0.175781 32.875 -0.53125 C 32.570312 -0.882812 32.460938 -1.367188 32.546875 -1.984375 L 36.65625 -35.0625 C 36.65625 -35.507812 36.476562 -35.734375 36.125 -35.734375 L 29.90625 -35.734375 C 29.46875 -35.734375 29.25 -35.507812 29.25 -35.0625 L 25.140625 -1.984375 C 25.054688 -1.367188 24.8125 -0.882812 24.40625 -0.53125 C 24.007812 -0.175781 23.550781 0 23.03125 0 L 2.640625 0 C 2.117188 0 1.703125 -0.175781 1.390625 -0.53125 C 1.078125 -0.882812 0.96875 -1.367188 1.0625 -1.984375 L 11.90625 -90.640625 C 12 -91.265625 12.242188 -91.75 12.640625 -92.09375 C 13.035156 -92.445312 13.5 -92.625 14.03125 -92.625 L 34.40625 -92.625 C 34.9375 -92.625 35.351562 -92.445312 35.65625 -92.09375 C 35.96875 -91.75 36.082031 -91.265625 36 -90.640625 L 32.015625 -57.6875 C 31.847656 -57.25 32.023438 -57.03125 32.546875 -57.03125 L 38.765625 -57.03125 C 38.941406 -57.03125 39.097656 -57.097656 39.234375 -57.234375 C 39.367188 -57.367188 39.4375 -57.519531 39.4375 -57.6875 Z M 43.53125 -90.640625 "/></g></g></g><g clip-path="url(#ca2555c509)"><g mask="url(#80a7f5aa5e)"><g transform="matrix(1, 0, 0, 1, 149, 140)"><g clip-path="url(#c05a9407d9)"><g fill="#77037b" fill-opacity="0.4"><g transform="translate(1.805704, 28.756784)"><g><path d="M 11.390625 -19.078125 C 11.390625 -18.890625 11.296875 -18.796875 11.109375 -18.796875 L 4.328125 -18.796875 C 4.253906 -18.796875 4.21875 -18.753906 4.21875 -18.671875 L 4.21875 -11.375 C 4.21875 -11.289062 4.253906 -11.25 4.328125 -11.25 L 8.59375 -11.25 C 8.789062 -11.25 8.890625 -11.148438 8.890625 -10.953125 L 8.890625 -9.6875 C 8.890625 -9.488281 8.789062 -9.390625 8.59375 -9.390625 L 4.328125 -9.390625 C 4.253906 -9.390625 4.21875 -9.351562 4.21875 -9.28125 L 4.21875 -0.296875 C 4.21875 -0.0976562 4.117188 0 3.921875 0 L 2.421875 0 C 2.222656 0 2.125 -0.0976562 2.125 -0.296875 L 2.125 -20.328125 C 2.125 -20.515625 2.222656 -20.609375 2.421875 -20.609375 L 11.109375 -20.609375 C 11.296875 -20.609375 11.390625 -20.515625 11.390625 -20.328125 Z M 11.390625 -19.078125 "/></g></g></g><g fill="#77037b" fill-opacity="0.4"><g transform="translate(13.705194, 28.756784)"><g><path d="M 2.421875 0 C 2.222656 0 2.125 -0.0976562 2.125 -0.296875 L 2.125 -20.328125 C 2.125 -20.515625 2.222656 -20.609375 2.421875 -20.609375 L 3.921875 -20.609375 C 4.117188 -20.609375 4.21875 -20.515625 4.21875 -20.328125 L 4.21875 -0.296875 C 4.21875 -0.0976562 4.117188 0 3.921875 0 Z M 2.421875 0 "/></g></g></g><g fill="#77037b" fill-opacity="0.4"><g transform="translate(20.037845, 28.756784)"><g><path d="M 10.375 -20.328125 C 10.375 -20.515625 10.46875 -20.609375 10.65625 -20.609375 L 12.140625 -20.609375 C 12.328125 -20.609375 12.421875 -20.515625 12.421875 -20.328125 L 12.421875 -0.296875 C 12.421875 -0.0976562 12.328125 0 12.140625 0 L 10.390625 0 C 10.234375 0 10.128906 -0.078125 10.078125 -0.234375 L 4.328125 -15.46875 C 4.304688 -15.519531 4.273438 -15.539062 4.234375 -15.53125 C 4.203125 -15.519531 4.1875 -15.488281 4.1875 -15.4375 L 4.21875 -0.296875 C 4.21875 -0.0976562 4.117188 0 3.921875 0 L 2.421875 0 C 2.222656 0 2.125 -0.0976562 2.125 -0.296875 L 2.125 -20.328125 C 2.125 -20.515625 2.222656 -20.609375 2.421875 -20.609375 L 4.125 -20.609375 C 4.28125 -20.609375 4.390625 -20.53125 4.453125 -20.375 L 10.21875 -5.125 C 10.238281 -5.0625 10.269531 -5.035156 10.3125 -5.046875 C 10.351562 -5.054688 10.375 -5.09375 10.375 -5.15625 Z M 10.375 -20.328125 "/></g></g></g><g fill="#77037b" fill-opacity="0.4"><g transform="translate(34.558752, 28.756784)"><g><path d="M 2.421875 0 C 2.222656 0 2.125 -0.0976562 2.125 -0.296875 L 2.125 -20.328125 C 2.125 -20.515625 2.222656 -20.609375 2.421875 -20.609375 L 6.953125 -20.609375 C 8.460938 -20.609375 9.664062 -20.113281 10.5625 -19.125 C 11.46875 -18.132812 11.921875 -16.804688 11.921875 -15.140625 L 11.921875 -5.484375 C 11.921875 -3.804688 11.46875 -2.472656 10.5625 -1.484375 C 9.664062 -0.492188 8.460938 0 6.953125 0 Z M 4.21875 -1.9375 C 4.21875 -1.863281 4.253906 -1.828125 4.328125 -1.828125 L 6.921875 -1.859375 C 7.785156 -1.859375 8.476562 -2.191406 9 -2.859375 C 9.519531 -3.523438 9.789062 -4.425781 9.8125 -5.5625 L 9.8125 -15.046875 C 9.8125 -16.203125 9.554688 -17.113281 9.046875 -17.78125 C 8.535156 -18.457031 7.828125 -18.796875 6.921875 -18.796875 L 4.328125 -18.796875 C 4.253906 -18.796875 4.21875 -18.753906 4.21875 -18.671875 Z M 4.21875 -1.9375 "/></g></g></g><g fill="#77037b" fill-opacity="0.4"><g transform="translate(48.254943, 28.756784)"><g/></g></g><g fill="#77037b" fill-opacity="0.4"><g transform="translate(54.145785, 28.756784)"><g><path d="M 11.109375 -20.40625 C 11.160156 -20.539062 11.273438 -20.609375 11.453125 -20.609375 L 12.984375 -20.609375 C 13.179688 -20.609375 13.28125 -20.515625 13.28125 -20.328125 L 13.28125 -0.296875 C 13.28125 -0.0976562 13.179688 0 12.984375 0 L 11.484375 0 C 11.285156 0 11.1875 -0.0976562 11.1875 -0.296875 L 11.1875 -16.078125 C 11.1875 -16.140625 11.171875 -16.171875 11.140625 -16.171875 C 11.117188 -16.171875 11.085938 -16.148438 11.046875 -16.109375 L 7.984375 -9.75 C 7.921875 -9.613281 7.820312 -9.546875 7.6875 -9.546875 C 7.53125 -9.546875 7.421875 -9.613281 7.359375 -9.75 L 4.296875 -16.078125 C 4.253906 -16.117188 4.21875 -16.140625 4.1875 -16.140625 C 4.164062 -16.140625 4.15625 -16.109375 4.15625 -16.046875 L 4.15625 -0.296875 C 4.15625 -0.0976562 4.054688 0 3.859375 0 L 2.359375 0 C 2.160156 0 2.0625 -0.0976562 2.0625 -0.296875 L 2.0625 -20.328125 C 2.0625 -20.515625 2.160156 -20.609375 2.359375 -20.609375 L 3.890625 -20.609375 C 4.066406 -20.609375 4.179688 -20.539062 4.234375 -20.40625 L 7.59375 -13.609375 C 7.613281 -13.566406 7.644531 -13.546875 7.6875 -13.546875 C 7.726562 -13.546875 7.757812 -13.566406 7.78125 -13.609375 Z M 11.109375 -20.40625 "/></g></g></g><g fill="#77037b" fill-opacity="0.4"><g transform="translate(69.491408, 28.756784)"><g><path d="M 5.5 -0.03125 C 5.3125 -0.03125 5.21875 -0.128906 5.21875 -0.328125 L 5.21875 -9.125 C 5.21875 -9.207031 5.207031 -9.257812 5.1875 -9.28125 L 1.09375 -20.265625 L 1.0625 -20.375 C 1.0625 -20.53125 1.148438 -20.609375 1.328125 -20.609375 L 2.921875 -20.609375 C 3.097656 -20.609375 3.210938 -20.53125 3.265625 -20.375 L 6.15625 -11.75 C 6.175781 -11.707031 6.203125 -11.6875 6.234375 -11.6875 C 6.273438 -11.6875 6.304688 -11.707031 6.328125 -11.75 L 9.21875 -20.375 C 9.28125 -20.53125 9.398438 -20.609375 9.578125 -20.609375 L 11.15625 -20.609375 C 11.257812 -20.609375 11.332031 -20.570312 11.375 -20.5 C 11.425781 -20.4375 11.429688 -20.359375 11.390625 -20.265625 L 7.328125 -9.28125 C 7.304688 -9.257812 7.296875 -9.207031 7.296875 -9.125 L 7.296875 -0.328125 C 7.296875 -0.128906 7.203125 -0.03125 7.015625 -0.03125 Z M 5.5 -0.03125 "/></g></g></g><g fill="#77037b" fill-opacity="0.4"><g transform="translate(81.979976, 28.756784)"><g/></g></g><g fill="#77037b" fill-opacity="0.4"><g transform="translate(87.870818, 28.756784)"><g><path d="M 6.125 0.234375 C 4.675781 0.234375 3.5 -0.242188 2.59375 -1.203125 C 1.6875 -2.171875 1.234375 -3.429688 1.234375 -4.984375 L 1.234375 -5.65625 C 1.234375 -5.851562 1.332031 -5.953125 1.53125 -5.953125 L 2.96875 -5.953125 C 3.164062 -5.953125 3.265625 -5.851562 3.265625 -5.65625 L 3.265625 -5.0625 C 3.265625 -4.019531 3.53125 -3.179688 4.0625 -2.546875 C 4.59375 -1.910156 5.28125 -1.59375 6.125 -1.59375 C 6.945312 -1.59375 7.632812 -1.894531 8.1875 -2.5 C 8.738281 -3.113281 9.015625 -3.921875 9.015625 -4.921875 C 9.015625 -5.585938 8.878906 -6.160156 8.609375 -6.640625 C 8.347656 -7.117188 8.003906 -7.539062 7.578125 -7.90625 C 7.160156 -8.269531 6.460938 -8.828125 5.484375 -9.578125 C 4.492188 -10.296875 3.710938 -10.914062 3.140625 -11.4375 C 2.578125 -11.957031 2.113281 -12.582031 1.75 -13.3125 C 1.382812 -14.039062 1.203125 -14.894531 1.203125 -15.875 C 1.203125 -17.40625 1.644531 -18.617188 2.53125 -19.515625 C 3.414062 -20.410156 4.566406 -20.859375 5.984375 -20.859375 C 7.472656 -20.859375 8.660156 -20.367188 9.546875 -19.390625 C 10.441406 -18.421875 10.890625 -17.128906 10.890625 -15.515625 L 10.890625 -14.78125 C 10.890625 -14.582031 10.796875 -14.484375 10.609375 -14.484375 L 9.125 -14.484375 C 8.925781 -14.484375 8.828125 -14.582031 8.828125 -14.78125 L 8.828125 -15.546875 C 8.828125 -16.585938 8.566406 -17.425781 8.046875 -18.0625 C 7.535156 -18.707031 6.847656 -19.03125 5.984375 -19.03125 C 5.191406 -19.03125 4.539062 -18.75 4.03125 -18.1875 C 3.519531 -17.625 3.265625 -16.832031 3.265625 -15.8125 C 3.265625 -15.207031 3.378906 -14.671875 3.609375 -14.203125 C 3.835938 -13.742188 4.175781 -13.304688 4.625 -12.890625 C 5.070312 -12.484375 5.738281 -11.945312 6.625 -11.28125 C 7.800781 -10.414062 8.675781 -9.710938 9.25 -9.171875 C 9.832031 -8.628906 10.28125 -8.039062 10.59375 -7.40625 C 10.914062 -6.769531 11.078125 -6 11.078125 -5.09375 C 11.078125 -3.488281 10.613281 -2.195312 9.6875 -1.21875 C 8.769531 -0.25 7.582031 0.234375 6.125 0.234375 Z M 6.125 0.234375 "/></g></g></g><g fill="#77037b" fill-opacity="0.4"><g transform="translate(100.123776, 28.756784)"><g><path d="M 9.890625 0 C 9.710938 0 9.609375 -0.0859375 9.578125 -0.265625 L 8.828125 -3.921875 C 8.828125 -3.953125 8.8125 -3.976562 8.78125 -4 C 8.757812 -4.019531 8.726562 -4.03125 8.6875 -4.03125 L 3.359375 -4.03125 C 3.316406 -4.03125 3.28125 -4.019531 3.25 -4 C 3.21875 -3.976562 3.203125 -3.953125 3.203125 -3.921875 L 2.46875 -0.265625 C 2.445312 -0.0859375 2.34375 0 2.15625 0 L 0.640625 0 C 0.546875 0 0.472656 -0.0234375 0.421875 -0.078125 C 0.378906 -0.140625 0.367188 -0.222656 0.390625 -0.328125 L 4.796875 -20.359375 C 4.835938 -20.523438 4.945312 -20.609375 5.125 -20.609375 L 6.890625 -20.609375 C 7.085938 -20.609375 7.195312 -20.523438 7.21875 -20.359375 L 11.6875 -0.328125 L 11.6875 -0.265625 C 11.6875 -0.0859375 11.597656 0 11.421875 0 Z M 3.59375 -5.859375 C 3.59375 -5.785156 3.625 -5.75 3.6875 -5.75 L 8.328125 -5.75 C 8.390625 -5.75 8.421875 -5.785156 8.421875 -5.859375 L 6.0625 -17.4375 C 6.039062 -17.5 6.019531 -17.53125 6 -17.53125 C 5.988281 -17.53125 5.972656 -17.5 5.953125 -17.4375 Z M 3.59375 -5.859375 "/></g></g></g><g fill="#77037b" fill-opacity="0.4"><g transform="translate(112.2, 28.756784)"><g><path d="M 11.390625 -19.078125 C 11.390625 -18.890625 11.296875 -18.796875 11.109375 -18.796875 L 4.328125 -18.796875 C 4.253906 -18.796875 4.21875 -18.753906 4.21875 -18.671875 L 4.21875 -11.375 C 4.21875 -11.289062 4.253906 -11.25 4.328125 -11.25 L 8.59375 -11.25 C 8.789062 -11.25 8.890625 -11.148438 8.890625 -10.953125 L 8.890625 -9.6875 C 8.890625 -9.488281 8.789062 -9.390625 8.59375 -9.390625 L 4.328125 -9.390625 C 4.253906 -9.390625 4.21875 -9.351562 4.21875 -9.28125 L 4.21875 -0.296875 C 4.21875 -0.0976562 4.117188 0 3.921875 0 L 2.421875 0 C 2.222656 0 2.125 -0.0976562 2.125 -0.296875 L 2.125 -20.328125 C 2.125 -20.515625 2.222656 -20.609375 2.421875 -20.609375 L 11.109375 -20.609375 C 11.296875 -20.609375 11.390625 -20.515625 11.390625 -20.328125 Z M 11.390625 -19.078125 "/></g></g></g><g fill="#77037b" fill-opacity="0.4"><g transform="translate(124.099489, 28.756784)"><g><path d="M 11.453125 -19.078125 C 11.453125 -18.890625 11.351562 -18.796875 11.15625 -18.796875 L 4.328125 -18.796875 C 4.253906 -18.796875 4.21875 -18.753906 4.21875 -18.671875 L 4.21875 -11.375 C 4.21875 -11.289062 4.253906 -11.25 4.328125 -11.25 L 8.625 -11.25 C 8.820312 -11.25 8.921875 -11.148438 8.921875 -10.953125 L 8.921875 -9.6875 C 8.921875 -9.488281 8.820312 -9.390625 8.625 -9.390625 L 4.328125 -9.390625 C 4.253906 -9.390625 4.21875 -9.351562 4.21875 -9.28125 L 4.21875 -1.9375 C 4.21875 -1.863281 4.253906 -1.828125 4.328125 -1.828125 L 11.15625 -1.828125 C 11.351562 -1.828125 11.453125 -1.726562 11.453125 -1.53125 L 11.453125 -0.296875 C 11.453125 -0.0976562 11.351562 0 11.15625 0 L 2.421875 0 C 2.222656 0 2.125 -0.0976562 2.125 -0.296875 L 2.125 -20.328125 C 2.125 -20.515625 2.222656 -20.609375 2.421875 -20.609375 L 11.15625 -20.609375 C 11.351562 -20.609375 11.453125 -20.515625 11.453125 -20.328125 Z M 11.453125 -19.078125 "/></g></g></g><g fill="#77037b" fill-opacity="0.4"><g transform="translate(136.735328, 28.756784)"><g/></g></g><g fill="#77037b" fill-opacity="0.4"><g transform="translate(142.62617, 28.756784)"><g><path d="M 9.6875 -20.328125 C 9.6875 -20.515625 9.785156 -20.609375 9.984375 -20.609375 L 11.484375 -20.609375 C 11.679688 -20.609375 11.78125 -20.515625 11.78125 -20.328125 L 11.78125 -0.296875 C 11.78125 -0.0976562 11.679688 0 11.484375 0 L 9.984375 0 C 9.785156 0 9.6875 -0.0976562 9.6875 -0.296875 L 9.6875 -9.28125 C 9.6875 -9.351562 9.648438 -9.390625 9.578125 -9.390625 L 4.328125 -9.390625 C 4.253906 -9.390625 4.21875 -9.351562 4.21875 -9.28125 L 4.21875 -0.296875 C 4.21875 -0.0976562 4.117188 0 3.921875 0 L 2.421875 0 C 2.222656 0 2.125 -0.0976562 2.125 -0.296875 L 2.125 -20.328125 C 2.125 -20.515625 2.222656 -20.609375 2.421875 -20.609375 L 3.921875 -20.609375 C 4.117188 -20.609375 4.21875 -20.515625 4.21875 -20.328125 L 4.21875 -11.375 C 4.21875 -11.289062 4.253906 -11.25 4.328125 -11.25 L 9.578125 -11.25 C 9.648438 -11.25 9.6875 -11.289062 9.6875 -11.375 Z M 9.6875 -20.328125 "/></g></g></g><g fill="#77037b" fill-opacity="0.4"><g transform="translate(156.528559, 28.756784)"><g><path d="M 6.6875 0.234375 C 5.175781 0.234375 3.953125 -0.234375 3.015625 -1.171875 C 2.085938 -2.117188 1.625 -3.367188 1.625 -4.921875 L 1.625 -15.703125 C 1.625 -17.253906 2.085938 -18.5 3.015625 -19.4375 C 3.953125 -20.382812 5.175781 -20.859375 6.6875 -20.859375 C 8.21875 -20.859375 9.453125 -20.382812 10.390625 -19.4375 C 11.335938 -18.5 11.8125 -17.253906 11.8125 -15.703125 L 11.8125 -4.921875 C 11.8125 -3.390625 11.335938 -2.144531 10.390625 -1.1875 C 9.453125 -0.238281 8.21875 0.234375 6.6875 0.234375 Z M 6.6875 -1.59375 C 7.59375 -1.59375 8.320312 -1.890625 8.875 -2.484375 C 9.4375 -3.085938 9.71875 -3.859375 9.71875 -4.796875 L 9.71875 -15.78125 C 9.71875 -16.75 9.4375 -17.53125 8.875 -18.125 C 8.320312 -18.726562 7.59375 -19.03125 6.6875 -19.03125 C 5.800781 -19.03125 5.082031 -18.726562 4.53125 -18.125 C 3.988281 -17.53125 3.71875 -16.75 3.71875 -15.78125 L 3.71875 -4.796875 C 3.71875 -3.859375 3.988281 -3.085938 4.53125 -2.484375 C 5.082031 -1.890625 5.800781 -1.59375 6.6875 -1.59375 Z M 6.6875 -1.59375 "/></g></g></g><g fill="#77037b" fill-opacity="0.4"><g transform="translate(169.959675, 28.756784)"><g><path d="M 11.109375 -20.40625 C 11.160156 -20.539062 11.273438 -20.609375 11.453125 -20.609375 L 12.984375 -20.609375 C 13.179688 -20.609375 13.28125 -20.515625 13.28125 -20.328125 L 13.28125 -0.296875 C 13.28125 -0.0976562 13.179688 0 12.984375 0 L 11.484375 0 C 11.285156 0 11.1875 -0.0976562 11.1875 -0.296875 L 11.1875 -16.078125 C 11.1875 -16.140625 11.171875 -16.171875 11.140625 -16.171875 C 11.117188 -16.171875 11.085938 -16.148438 11.046875 -16.109375 L 7.984375 -9.75 C 7.921875 -9.613281 7.820312 -9.546875 7.6875 -9.546875 C 7.53125 -9.546875 7.421875 -9.613281 7.359375 -9.75 L 4.296875 -16.078125 C 4.253906 -16.117188 4.21875 -16.140625 4.1875 -16.140625 C 4.164062 -16.140625 4.15625 -16.109375 4.15625 -16.046875 L 4.15625 -0.296875 C 4.15625 -0.0976562 4.054688 0 3.859375 0 L 2.359375 0 C 2.160156 0 2.0625 -0.0976562 2.0625 -0.296875 L 2.0625 -20.328125 C 2.0625 -20.515625 2.160156 -20.609375 2.359375 -20.609375 L 3.890625 -20.609375 C 4.066406 -20.609375 4.179688 -20.539062 4.234375 -20.40625 L 7.59375 -13.609375 C 7.613281 -13.566406 7.644531 -13.546875 7.6875 -13.546875 C 7.726562 -13.546875 7.757812 -13.566406 7.78125 -13.609375 Z M 11.109375 -20.40625 "/></g></g></g><g fill="#77037b" fill-opacity="0.4"><g transform="translate(185.305298, 28.756784)"><g><path d="M 11.453125 -19.078125 C 11.453125 -18.890625 11.351562 -18.796875 11.15625 -18.796875 L 4.328125 -18.796875 C 4.253906 -18.796875 4.21875 -18.753906 4.21875 -18.671875 L 4.21875 -11.375 C 4.21875 -11.289062 4.253906 -11.25 4.328125 -11.25 L 8.625 -11.25 C 8.820312 -11.25 8.921875 -11.148438 8.921875 -10.953125 L 8.921875 -9.6875 C 8.921875 -9.488281 8.820312 -9.390625 8.625 -9.390625 L 4.328125 -9.390625 C 4.253906 -9.390625 4.21875 -9.351562 4.21875 -9.28125 L 4.21875 -1.9375 C 4.21875 -1.863281 4.253906 -1.828125 4.328125 -1.828125 L 11.15625 -1.828125 C 11.351562 -1.828125 11.453125 -1.726562 11.453125 -1.53125 L 11.453125 -0.296875 C 11.453125 -0.0976562 11.351562 0 11.15625 0 L 2.421875 0 C 2.222656 0 2.125 -0.0976562 2.125 -0.296875 L 2.125 -20.328125 C 2.125 -20.515625 2.222656 -20.609375 2.421875 -20.609375 L 11.15625 -20.609375 C 11.351562 -20.609375 11.453125 -20.515625 11.453125 -20.328125 Z M 11.453125 -19.078125 "/></g></g></g><g fill="#77037b" fill-opacity="1"><g transform="translate(1.180685, 28.131765)"><g><path d="M 11.390625 -19.078125 C 11.390625 -18.890625 11.296875 -18.796875 11.109375 -18.796875 L 4.328125 -18.796875 C 4.253906 -18.796875 4.21875 -18.753906 4.21875 -18.671875 L 4.21875 -11.375 C 4.21875 -11.289062 4.253906 -11.25 4.328125 -11.25 L 8.59375 -11.25 C 8.789062 -11.25 8.890625 -11.148438 8.890625 -10.953125 L 8.890625 -9.6875 C 8.890625 -9.488281 8.789062 -9.390625 8.59375 -9.390625 L 4.328125 -9.390625 C 4.253906 -9.390625 4.21875 -9.351562 4.21875 -9.28125 L 4.21875 -0.296875 C 4.21875 -0.0976562 4.117188 0 3.921875 0 L 2.421875 0 C 2.222656 0 2.125 -0.0976562 2.125 -0.296875 L 2.125 -20.328125 C 2.125 -20.515625 2.222656 -20.609375 2.421875 -20.609375 L 11.109375 -20.609375 C 11.296875 -20.609375 11.390625 -20.515625 11.390625 -20.328125 Z M 11.390625 -19.078125 "/></g></g></g><g fill="#77037b" fill-opacity="1"><g transform="translate(13.080175, 28.131765)"><g><path d="M 2.421875 0 C 2.222656 0 2.125 -0.0976562 2.125 -0.296875 L 2.125 -20.328125 C 2.125 -20.515625 2.222656 -20.609375 2.421875 -20.609375 L 3.921875 -20.609375 C 4.117188 -20.609375 4.21875 -20.515625 4.21875 -20.328125 L 4.21875 -0.296875 C 4.21875 -0.0976562 4.117188 0 3.921875 0 Z M 2.421875 0 "/></g></g></g><g fill="#77037b" fill-opacity="1"><g transform="translate(19.412826, 28.131765)"><g><path d="M 10.375 -20.328125 C 10.375 -20.515625 10.46875 -20.609375 10.65625 -20.609375 L 12.140625 -20.609375 C 12.328125 -20.609375 12.421875 -20.515625 12.421875 -20.328125 L 12.421875 -0.296875 C 12.421875 -0.0976562 12.328125 0 12.140625 0 L 10.390625 0 C 10.234375 0 10.128906 -0.078125 10.078125 -0.234375 L 4.328125 -15.46875 C 4.304688 -15.519531 4.273438 -15.539062 4.234375 -15.53125 C 4.203125 -15.519531 4.1875 -15.488281 4.1875 -15.4375 L 4.21875 -0.296875 C 4.21875 -0.0976562 4.117188 0 3.921875 0 L 2.421875 0 C 2.222656 0 2.125 -0.0976562 2.125 -0.296875 L 2.125 -20.328125 C 2.125 -20.515625 2.222656 -20.609375 2.421875 -20.609375 L 4.125 -20.609375 C 4.28125 -20.609375 4.390625 -20.53125 4.453125 -20.375 L 10.21875 -5.125 C 10.238281 -5.0625 10.269531 -5.035156 10.3125 -5.046875 C 10.351562 -5.054688 10.375 -5.09375 10.375 -5.15625 Z M 10.375 -20.328125 "/></g></g></g><g fill="#77037b" fill-opacity="1"><g transform="translate(33.933733, 28.131765)"><g><path d="M 2.421875 0 C 2.222656 0 2.125 -0.0976562 2.125 -0.296875 L 2.125 -20.328125 C 2.125 -20.515625 2.222656 -20.609375 2.421875 -20.609375 L 6.953125 -20.609375 C 8.460938 -20.609375 9.664062 -20.113281 10.5625 -19.125 C 11.46875 -18.132812 11.921875 -16.804688 11.921875 -15.140625 L 11.921875 -5.484375 C 11.921875 -3.804688 11.46875 -2.472656 10.5625 -1.484375 C 9.664062 -0.492188 8.460938 0 6.953125 0 Z M 4.21875 -1.9375 C 4.21875 -1.863281 4.253906 -1.828125 4.328125 -1.828125 L 6.921875 -1.859375 C 7.785156 -1.859375 8.476562 -2.191406 9 -2.859375 C 9.519531 -3.523438 9.789062 -4.425781 9.8125 -5.5625 L 9.8125 -15.046875 C 9.8125 -16.203125 9.554688 -17.113281 9.046875 -17.78125 C 8.535156 -18.457031 7.828125 -18.796875 6.921875 -18.796875 L 4.328125 -18.796875 C 4.253906 -18.796875 4.21875 -18.753906 4.21875 -18.671875 Z M 4.21875 -1.9375 "/></g></g></g><g fill="#77037b" fill-opacity="1"><g transform="translate(47.629924, 28.131765)"><g/></g></g><g fill="#77037b" fill-opacity="1"><g transform="translate(53.520766, 28.131765)"><g><path d="M 11.109375 -20.40625 C 11.160156 -20.539062 11.273438 -20.609375 11.453125 -20.609375 L 12.984375 -20.609375 C 13.179688 -20.609375 13.28125 -20.515625 13.28125 -20.328125 L 13.28125 -0.296875 C 13.28125 -0.0976562 13.179688 0 12.984375 0 L 11.484375 0 C 11.285156 0 11.1875 -0.0976562 11.1875 -0.296875 L 11.1875 -16.078125 C 11.1875 -16.140625 11.171875 -16.171875 11.140625 -16.171875 C 11.117188 -16.171875 11.085938 -16.148438 11.046875 -16.109375 L 7.984375 -9.75 C 7.921875 -9.613281 7.820312 -9.546875 7.6875 -9.546875 C 7.53125 -9.546875 7.421875 -9.613281 7.359375 -9.75 L 4.296875 -16.078125 C 4.253906 -16.117188 4.21875 -16.140625 4.1875 -16.140625 C 4.164062 -16.140625 4.15625 -16.109375 4.15625 -16.046875 L 4.15625 -0.296875 C 4.15625 -0.0976562 4.054688 0 3.859375 0 L 2.359375 0 C 2.160156 0 2.0625 -0.0976562 2.0625 -0.296875 L 2.0625 -20.328125 C 2.0625 -20.515625 2.160156 -20.609375 2.359375 -20.609375 L 3.890625 -20.609375 C 4.066406 -20.609375 4.179688 -20.539062 4.234375 -20.40625 L 7.59375 -13.609375 C 7.613281 -13.566406 7.644531 -13.546875 7.6875 -13.546875 C 7.726562 -13.546875 7.757812 -13.566406 7.78125 -13.609375 Z M 11.109375 -20.40625 "/></g></g></g><g fill="#77037b" fill-opacity="1"><g transform="translate(68.866389, 28.131765)"><g><path d="M 5.5 -0.03125 C 5.3125 -0.03125 5.21875 -0.128906 5.21875 -0.328125 L 5.21875 -9.125 C 5.21875 -9.207031 5.207031 -9.257812 5.1875 -9.28125 L 1.09375 -20.265625 L 1.0625 -20.375 C 1.0625 -20.53125 1.148438 -20.609375 1.328125 -20.609375 L 2.921875 -20.609375 C 3.097656 -20.609375 3.210938 -20.53125 3.265625 -20.375 L 6.15625 -11.75 C 6.175781 -11.707031 6.203125 -11.6875 6.234375 -11.6875 C 6.273438 -11.6875 6.304688 -11.707031 6.328125 -11.75 L 9.21875 -20.375 C 9.28125 -20.53125 9.398438 -20.609375 9.578125 -20.609375 L 11.15625 -20.609375 C 11.257812 -20.609375 11.332031 -20.570312 11.375 -20.5 C 11.425781 -20.4375 11.429688 -20.359375 11.390625 -20.265625 L 7.328125 -9.28125 C 7.304688 -9.257812 7.296875 -9.207031 7.296875 -9.125 L 7.296875 -0.328125 C 7.296875 -0.128906 7.203125 -0.03125 7.015625 -0.03125 Z M 5.5 -0.03125 "/></g></g></g><g fill="#77037b" fill-opacity="1"><g transform="translate(81.354957, 28.131765)"><g/></g></g><g fill="#77037b" fill-opacity="1"><g transform="translate(87.245799, 28.131765)"><g><path d="M 6.125 0.234375 C 4.675781 0.234375 3.5 -0.242188 2.59375 -1.203125 C 1.6875 -2.171875 1.234375 -3.429688 1.234375 -4.984375 L 1.234375 -5.65625 C 1.234375 -5.851562 1.332031 -5.953125 1.53125 -5.953125 L 2.96875 -5.953125 C 3.164062 -5.953125 3.265625 -5.851562 3.265625 -5.65625 L 3.265625 -5.0625 C 3.265625 -4.019531 3.53125 -3.179688 4.0625 -2.546875 C 4.59375 -1.910156 5.28125 -1.59375 6.125 -1.59375 C 6.945312 -1.59375 7.632812 -1.894531 8.1875 -2.5 C 8.738281 -3.113281 9.015625 -3.921875 9.015625 -4.921875 C 9.015625 -5.585938 8.878906 -6.160156 8.609375 -6.640625 C 8.347656 -7.117188 8.003906 -7.539062 7.578125 -7.90625 C 7.160156 -8.269531 6.460938 -8.828125 5.484375 -9.578125 C 4.492188 -10.296875 3.710938 -10.914062 3.140625 -11.4375 C 2.578125 -11.957031 2.113281 -12.582031 1.75 -13.3125 C 1.382812 -14.039062 1.203125 -14.894531 1.203125 -15.875 C 1.203125 -17.40625 1.644531 -18.617188 2.53125 -19.515625 C 3.414062 -20.410156 4.566406 -20.859375 5.984375 -20.859375 C 7.472656 -20.859375 8.660156 -20.367188 9.546875 -19.390625 C 10.441406 -18.421875 10.890625 -17.128906 10.890625 -15.515625 L 10.890625 -14.78125 C 10.890625 -14.582031 10.796875 -14.484375 10.609375 -14.484375 L 9.125 -14.484375 C 8.925781 -14.484375 8.828125 -14.582031 8.828125 -14.78125 L 8.828125 -15.546875 C 8.828125 -16.585938 8.566406 -17.425781 8.046875 -18.0625 C 7.535156 -18.707031 6.847656 -19.03125 5.984375 -19.03125 C 5.191406 -19.03125 4.539062 -18.75 4.03125 -18.1875 C 3.519531 -17.625 3.265625 -16.832031 3.265625 -15.8125 C 3.265625 -15.207031 3.378906 -14.671875 3.609375 -14.203125 C 3.835938 -13.742188 4.175781 -13.304688 4.625 -12.890625 C 5.070312 -12.484375 5.738281 -11.945312 6.625 -11.28125 C 7.800781 -10.414062 8.675781 -9.710938 9.25 -9.171875 C 9.832031 -8.628906 10.28125 -8.039062 10.59375 -7.40625 C 10.914062 -6.769531 11.078125 -6 11.078125 -5.09375 C 11.078125 -3.488281 10.613281 -2.195312 9.6875 -1.21875 C 8.769531 -0.25 7.582031 0.234375 6.125 0.234375 Z M 6.125 0.234375 "/></g></g></g><g fill="#77037b" fill-opacity="1"><g transform="translate(99.498757, 28.131765)"><g><path d="M 9.890625 0 C 9.710938 0 9.609375 -0.0859375 9.578125 -0.265625 L 8.828125 -3.921875 C 8.828125 -3.953125 8.8125 -3.976562 8.78125 -4 C 8.757812 -4.019531 8.726562 -4.03125 8.6875 -4.03125 L 3.359375 -4.03125 C 3.316406 -4.03125 3.28125 -4.019531 3.25 -4 C 3.21875 -3.976562 3.203125 -3.953125 3.203125 -3.921875 L 2.46875 -0.265625 C 2.445312 -0.0859375 2.34375 0 2.15625 0 L 0.640625 0 C 0.546875 0 0.472656 -0.0234375 0.421875 -0.078125 C 0.378906 -0.140625 0.367188 -0.222656 0.390625 -0.328125 L 4.796875 -20.359375 C 4.835938 -20.523438 4.945312 -20.609375 5.125 -20.609375 L 6.890625 -20.609375 C 7.085938 -20.609375 7.195312 -20.523438 7.21875 -20.359375 L 11.6875 -0.328125 L 11.6875 -0.265625 C 11.6875 -0.0859375 11.597656 0 11.421875 0 Z M 3.59375 -5.859375 C 3.59375 -5.785156 3.625 -5.75 3.6875 -5.75 L 8.328125 -5.75 C 8.390625 -5.75 8.421875 -5.785156 8.421875 -5.859375 L 6.0625 -17.4375 C 6.039062 -17.5 6.019531 -17.53125 6 -17.53125 C 5.988281 -17.53125 5.972656 -17.5 5.953125 -17.4375 Z M 3.59375 -5.859375 "/></g></g></g><g fill="#77037b" fill-opacity="1"><g transform="translate(111.574981, 28.131765)"><g><path d="M 11.390625 -19.078125 C 11.390625 -18.890625 11.296875 -18.796875 11.109375 -18.796875 L 4.328125 -18.796875 C 4.253906 -18.796875 4.21875 -18.753906 4.21875 -18.671875 L 4.21875 -11.375 C 4.21875 -11.289062 4.253906 -11.25 4.328125 -11.25 L 8.59375 -11.25 C 8.789062 -11.25 8.890625 -11.148438 8.890625 -10.953125 L 8.890625 -9.6875 C 8.890625 -9.488281 8.789062 -9.390625 8.59375 -9.390625 L 4.328125 -9.390625 C 4.253906 -9.390625 4.21875 -9.351562 4.21875 -9.28125 L 4.21875 -0.296875 C 4.21875 -0.0976562 4.117188 0 3.921875 0 L 2.421875 0 C 2.222656 0 2.125 -0.0976562 2.125 -0.296875 L 2.125 -20.328125 C 2.125 -20.515625 2.222656 -20.609375 2.421875 -20.609375 L 11.109375 -20.609375 C 11.296875 -20.609375 11.390625 -20.515625 11.390625 -20.328125 Z M 11.390625 -19.078125 "/></g></g></g><g fill="#77037b" fill-opacity="1"><g transform="translate(123.47447, 28.131765)"><g><path d="M 11.453125 -19.078125 C 11.453125 -18.890625 11.351562 -18.796875 11.15625 -18.796875 L 4.328125 -18.796875 C 4.253906 -18.796875 4.21875 -18.753906 4.21875 -18.671875 L 4.21875 -11.375 C 4.21875 -11.289062 4.253906 -11.25 4.328125 -11.25 L 8.625 -11.25 C 8.820312 -11.25 8.921875 -11.148438 8.921875 -10.953125 L 8.921875 -9.6875 C 8.921875 -9.488281 8.820312 -9.390625 8.625 -9.390625 L 4.328125 -9.390625 C 4.253906 -9.390625 4.21875 -9.351562 4.21875 -9.28125 L 4.21875 -1.9375 C 4.21875 -1.863281 4.253906 -1.828125 4.328125 -1.828125 L 11.15625 -1.828125 C 11.351562 -1.828125 11.453125 -1.726562 11.453125 -1.53125 L 11.453125 -0.296875 C 11.453125 -0.0976562 11.351562 0 11.15625 0 L 2.421875 0 C 2.222656 0 2.125 -0.0976562 2.125 -0.296875 L 2.125 -20.328125 C 2.125 -20.515625 2.222656 -20.609375 2.421875 -20.609375 L 11.15625 -20.609375 C 11.351562 -20.609375 11.453125 -20.515625 11.453125 -20.328125 Z M 11.453125 -19.078125 "/></g></g></g><g fill="#77037b" fill-opacity="1"><g transform="translate(136.110309, 28.131765)"><g/></g></g><g fill="#77037b" fill-opacity="1"><g transform="translate(142.001151, 28.131765)"><g><path d="M 9.6875 -20.328125 C 9.6875 -20.515625 9.785156 -20.609375 9.984375 -20.609375 L 11.484375 -20.609375 C 11.679688 -20.609375 11.78125 -20.515625 11.78125 -20.328125 L 11.78125 -0.296875 C 11.78125 -0.0976562 11.679688 0 11.484375 0 L 9.984375 0 C 9.785156 0 9.6875 -0.0976562 9.6875 -0.296875 L 9.6875 -9.28125 C 9.6875 -9.351562 9.648438 -9.390625 9.578125 -9.390625 L 4.328125 -9.390625 C 4.253906 -9.390625 4.21875 -9.351562 4.21875 -9.28125 L 4.21875 -0.296875 C 4.21875 -0.0976562 4.117188 0 3.921875 0 L 2.421875 0 C 2.222656 0 2.125 -0.0976562 2.125 -0.296875 L 2.125 -20.328125 C 2.125 -20.515625 2.222656 -20.609375 2.421875 -20.609375 L 3.921875 -20.609375 C 4.117188 -20.609375 4.21875 -20.515625 4.21875 -20.328125 L 4.21875 -11.375 C 4.21875 -11.289062 4.253906 -11.25 4.328125 -11.25 L 9.578125 -11.25 C 9.648438 -11.25 9.6875 -11.289062 9.6875 -11.375 Z M 9.6875 -20.328125 "/></g></g></g><g fill="#77037b" fill-opacity="1"><g transform="translate(155.90354, 28.131765)"><g><path d="M 6.6875 0.234375 C 5.175781 0.234375 3.953125 -0.234375 3.015625 -1.171875 C 2.085938 -2.117188 1.625 -3.367188 1.625 -4.921875 L 1.625 -15.703125 C 1.625 -17.253906 2.085938 -18.5 3.015625 -19.4375 C 3.953125 -20.382812 5.175781 -20.859375 6.6875 -20.859375 C 8.21875 -20.859375 9.453125 -20.382812 10.390625 -19.4375 C 11.335938 -18.5 11.8125 -17.253906 11.8125 -15.703125 L 11.8125 -4.921875 C 11.8125 -3.390625 11.335938 -2.144531 10.390625 -1.1875 C 9.453125 -0.238281 8.21875 0.234375 6.6875 0.234375 Z M 6.6875 -1.59375 C 7.59375 -1.59375 8.320312 -1.890625 8.875 -2.484375 C 9.4375 -3.085938 9.71875 -3.859375 9.71875 -4.796875 L 9.71875 -15.78125 C 9.71875 -16.75 9.4375 -17.53125 8.875 -18.125 C 8.320312 -18.726562 7.59375 -19.03125 6.6875 -19.03125 C 5.800781 -19.03125 5.082031 -18.726562 4.53125 -18.125 C 3.988281 -17.53125 3.71875 -16.75 3.71875 -15.78125 L 3.71875 -4.796875 C 3.71875 -3.859375 3.988281 -3.085938 4.53125 -2.484375 C 5.082031 -1.890625 5.800781 -1.59375 6.6875 -1.59375 Z M 6.6875 -1.59375 "/></g></g></g><g fill="#77037b" fill-opacity="1"><g transform="translate(169.334656, 28.131765)"><g><path d="M 11.109375 -20.40625 C 11.160156 -20.539062 11.273438 -20.609375 11.453125 -20.609375 L 12.984375 -20.609375 C 13.179688 -20.609375 13.28125 -20.515625 13.28125 -20.328125 L 13.28125 -0.296875 C 13.28125 -0.0976562 13.179688 0 12.984375 0 L 11.484375 0 C 11.285156 0 11.1875 -0.0976562 11.1875 -0.296875 L 11.1875 -16.078125 C 11.1875 -16.140625 11.171875 -16.171875 11.140625 -16.171875 C 11.117188 -16.171875 11.085938 -16.148438 11.046875 -16.109375 L 7.984375 -9.75 C 7.921875 -9.613281 7.820312 -9.546875 7.6875 -9.546875 C 7.53125 -9.546875 7.421875 -9.613281 7.359375 -9.75 L 4.296875 -16.078125 C 4.253906 -16.117188 4.21875 -16.140625 4.1875 -16.140625 C 4.164062 -16.140625 4.15625 -16.109375 4.15625 -16.046875 L 4.15625 -0.296875 C 4.15625 -0.0976562 4.054688 0 3.859375 0 L 2.359375 0 C 2.160156 0 2.0625 -0.0976562 2.0625 -0.296875 L 2.0625 -20.328125 C 2.0625 -20.515625 2.160156 -20.609375 2.359375 -20.609375 L 3.890625 -20.609375 C 4.066406 -20.609375 4.179688 -20.539062 4.234375 -20.40625 L 7.59375 -13.609375 C 7.613281 -13.566406 7.644531 -13.546875 7.6875 -13.546875 C 7.726562 -13.546875 7.757812 -13.566406 7.78125 -13.609375 Z M 11.109375 -20.40625 "/></g></g></g><g fill="#77037b" fill-opacity="1"><g transform="translate(184.680278, 28.131765)"><g><path d="M 11.453125 -19.078125 C 11.453125 -18.890625 11.351562 -18.796875 11.15625 -18.796875 L 4.328125 -18.796875 C 4.253906 -18.796875 4.21875 -18.753906 4.21875 -18.671875 L 4.21875 -11.375 C 4.21875 -11.289062 4.253906 -11.25 4.328125 -11.25 L 8.625 -11.25 C 8.820312 -11.25 8.921875 -11.148438 8.921875 -10.953125 L 8.921875 -9.6875 C 8.921875 -9.488281 8.820312 -9.390625 8.625 -9.390625 L 4.328125 -9.390625 C 4.253906 -9.390625 4.21875 -9.351562 4.21875 -9.28125 L 4.21875 -1.9375 C 4.21875 -1.863281 4.253906 -1.828125 4.328125 -1.828125 L 11.15625 -1.828125 C 11.351562 -1.828125 11.453125 -1.726562 11.453125 -1.53125 L 11.453125 -0.296875 C 11.453125 -0.0976562 11.351562 0 11.15625 0 L 2.421875 0 C 2.222656 0 2.125 -0.0976562 2.125 -0.296875 L 2.125 -20.328125 C 2.125 -20.515625 2.222656 -20.609375 2.421875 -20.609375 L 11.15625 -20.609375 C 11.351562 -20.609375 11.453125 -20.515625 11.453125 -20.328125 Z M 11.453125 -19.078125 "/></g></g></g></g></g></g></g></svg>